<!-- Icona che si appone a tutte le card di HOW IT WORKS -->

<svg viewBox="0 0 16 16" xmlns="http://www.w3.org/2000/svg" width="1rem" height="1rem" fill="var(--c-primary)" role="presentation" aria-hidden="true" class="icon-hX3G5Z" style="min-width: 1rem; min-height: 1rem;"><path d="M0 256C0 114.6 114.6 0 256 0c141.4 0 256 114.6 256 256s-114.6 256-256 256C114.6 512 0 397.4 0 256Zm256 112c13.3 0 24-10.7 24-24v-64h64c13.3 0 24-10.7 24-24s-10.7-24-24-24h-64v-64c0-13.3-10.7-24-24-24s-24 10.7-24 24v64h-64c-13.3 0-24 10.7-24 24s10.7 24 24 24h64v64c0 13.3 10.7 24 24 24Z" transform="scale(.03125)"></path></svg>