<!-- Icona SVG step 04 -->

<svg viewBox="0 0 667 667" xmlns="http://www.w3.org/2000/svg" fill="var(--c-text)" role="img" aria-hidden="true" aria-label="Salta in sella" class="img-hMnTm1"><path fill="var(--c-icon-primary, #0694F9)" fill-rule="evenodd" d="M114.288 465.673V490.119H137.191V465.673"></path><path fill="var(--c-icon-bg-d2, #EEEEEE)" fill-rule="evenodd" d="M49.395 465.673H202.083L125.743 292.269 49.395 465.673Z"></path><rect width="131.675" height="4.669" x="59.992" y="441.194" fill="var(--c-icon-bg-d4, #BDBDBD)" fill-rule="evenodd"></rect><rect width="83.978" height="4.167" x="83.75" y="387.027" fill="var(--c-icon-bg-d4, #BDBDBD)" fill-rule="evenodd"></rect><path fill="var(--c-icon, #222222)" fill-rule="evenodd" d="M112.204 467.756V492.202H139.274V467.756H202.083C202.787 467.756 203.444 467.401 203.828 466.811 204.213 466.221 204.274 465.478 203.99 464.833L127.649 291.43C127.317 290.674 126.569 290.186 125.743 290.186 124.917 290.186 124.169 290.674 123.836 291.43L47.488 464.833C47.205 465.478 47.266 466.221 47.65 466.811 48.035 467.401 48.691 467.756 49.395 467.756H112.204ZM135.108 467.756H116.371V488.035C116.371 488.035 135.108 488.035 135.108 488.035V467.756ZM52.589 463.589L125.743 297.439C125.743 297.439 198.89 463.589 198.89 463.589H52.589Z"></path><path fill="var(--c-icon-primary, #0694F9)" fill-rule="evenodd" d="M65.946 510.553V533.936H85.378V510.553"></path><path fill="var(--c-icon-bg-d2, #EEEEEE)" fill-rule="evenodd" d="M27.083 510.553H124.241L75.662 269.336 27.083 510.553Z"></path><path fill="var(--c-icon, #222222)" fill-rule="evenodd" d="M63.863 512.636V536.019H87.461V512.636H124.241C124.866 512.636 125.457 512.356 125.853 511.872 126.249 511.389 126.407 510.754 126.283 510.141L77.704 268.925C77.509 267.952 76.654 267.253 75.662 267.253 74.67 267.253 73.816 267.952 73.62 268.925L25.041 510.141C24.918 510.754 25.076 511.389 25.471 511.872 25.867 512.356 26.459 512.636 27.083 512.636H63.863ZM83.295 512.636H68.03V531.852C68.03 531.852 83.295 531.852 83.295 531.852V512.636ZM29.628 508.469L75.662 279.889C75.662 279.889 121.696 508.469 121.696 508.469H29.628Z"></path><path fill="var(--c-icon-primary, #0694F9)" fill-rule="evenodd" d="M597.955 512.652V536.035H617.387V512.652"></path><path fill="var(--c-icon-bg-d2, #EEEEEE)" fill-rule="evenodd" d="M559.092 512.652H656.25L607.671 271.436 559.092 512.652Z"></path><path fill="var(--c-icon, #222222)" fill-rule="evenodd" d="M595.872 514.735V538.119H619.47V514.735H656.25C656.875 514.735 657.466 514.455 657.862 513.972 658.258 513.488 658.416 512.853 658.292 512.241L609.713 271.024C609.518 270.052 608.663 269.352 607.671 269.352 606.679 269.352 605.825 270.052 605.629 271.024L557.05 512.241C556.927 512.853 557.085 513.488 557.48 513.972 557.876 514.455 558.468 514.735 559.092 514.735H595.872ZM615.304 514.735H600.039V533.952C600.039 533.952 615.304 533.952 615.304 533.952V514.735ZM561.637 510.569L607.671 281.988C607.671 281.988 653.705 510.569 653.705 510.569H561.637Z"></path><circle cx="291.714" cy="200.985" r="33.333" fill="var(--c-icon-primary, #0694F9)" fill-rule="evenodd"></circle><path fill="var(--c-icon-bg, #FFFFFF)" d="M482.77 146.31C485.09 146.31 487.274 146.889 489.202 147.9 489.151 147.377 489.124 146.846 489.124 146.31 489.124 137.454 496.213 130.275 504.96 130.275 509.942 130.275 514.38 132.61 517.284 136.25 518.288 128.376 524.922 122.286 532.973 122.286 541.72 122.286 548.811 129.464 548.811 138.32 548.811 141.515 547.876 144.486 546.286 146.987 547.635 146.55 549.071 146.31 550.563 146.31 558.321 146.31 564.609 152.678 564.609 160.532 564.609 168.385 558.321 174.752 550.563 174.752H482.77C475.013 174.752 468.724 168.385 468.724 160.532 468.724 152.678 475.013 146.31 482.77 146.31Z"></path><path fill="var(--c-icon, #222222)" fill-rule="evenodd" d="M487.126 144.838C485.741 144.441 484.281 144.227 482.77 144.227 473.876 144.227 466.667 151.527 466.667 160.532 466.667 169.535 473.876 176.835 482.77 176.835 482.77 176.835 550.563 176.835 550.563 176.835 559.457 176.835 566.667 169.535 566.667 160.532 566.667 151.527 559.457 144.227 550.563 144.227 550.335 144.227 550.109 144.232 549.883 144.242 550.52 142.386 550.868 140.395 550.868 138.32 550.868 128.313 542.856 120.203 532.973 120.203 525.223 120.203 518.634 125.197 516.151 132.178 513.086 129.685 509.197 128.191 504.96 128.191 495.566 128.191 487.864 135.52 487.126 144.838ZM482.77 148.394C484.749 148.394 486.611 148.887 488.255 149.75 488.925 150.101 489.731 150.054 490.355 149.625 490.98 149.197 491.323 148.458 491.25 147.698 491.206 147.241 491.182 146.777 491.182 146.31 491.182 138.605 497.35 132.358 504.96 132.358 509.295 132.358 513.157 134.392 515.683 137.559 516.2 138.208 517.05 138.482 517.843 138.255 518.636 138.028 519.219 137.344 519.324 136.517 520.198 129.667 525.97 124.37 532.973 124.37 540.583 124.37 546.753 130.615 546.753 138.32 546.753 141.1 545.939 143.684 544.556 145.86 544.086 146.599 544.125 147.558 544.654 148.255 545.182 148.953 546.086 149.239 546.913 148.972 548.064 148.599 549.29 148.394 550.563 148.394 557.184 148.394 562.552 153.828 562.552 160.532 562.552 167.234 557.184 172.669 550.563 172.669H482.77C476.149 172.669 470.782 167.234 470.782 160.532 470.782 153.828 476.149 148.394 482.77 148.394Z"></path><path fill="var(--c-icon-bg, #FFFFFF)" d="M189.583 200.602C189.583 194.711 194.071 189.934 199.608 189.934 201.393 189.934 203.065 190.437 204.517 191.305 204.716 185.601 209.114 181.041 214.524 181.041 219.965 181.041 224.386 185.657 224.536 191.408 226.025 190.478 227.753 189.934 229.604 189.934 235.141 189.934 239.631 194.711 239.631 200.602 239.631 206.493 235.141 211.268 229.604 211.268H199.099V211.243C193.8 210.956 189.583 206.311 189.583 200.602Z"></path><path fill="var(--c-icon, #222222)" fill-rule="evenodd" d="M198.993 213.457L229.604 213.485C236.291 213.485 241.714 207.717 241.714 200.602 241.714 193.487 236.291 187.718 229.604 187.718 228.414 187.718 227.266 187.903 226.181 188.246 224.761 182.813 220.083 178.825 214.524 178.825 208.979 178.825 204.315 182.788 202.881 188.198 201.841 187.886 200.743 187.718 199.608 187.718 192.921 187.718 187.5 193.487 187.5 200.602 187.5 207.498 192.592 213.11 198.993 213.457ZM199.412 209.052C199.344 209.041 199.275 209.033 199.204 209.029 195.008 208.802 191.667 205.124 191.667 200.602 191.667 195.935 195.222 192.151 199.608 192.151 201.022 192.151 202.346 192.549 203.496 193.237 204.129 193.616 204.902 193.617 205.536 193.239 206.169 192.861 206.572 192.16 206.599 191.387 206.757 186.869 210.239 183.258 214.524 183.258 218.833 183.258 222.335 186.915 222.453 191.469 222.473 192.253 222.881 192.966 223.525 193.346 224.169 193.726 224.954 193.716 225.59 193.32 226.769 192.584 228.137 192.151 229.604 192.151 233.99 192.151 237.547 195.935 237.547 200.602 237.547 205.269 233.99 209.052 229.604 209.052H199.412Z"></path><path fill="var(--c-icon-bg, #FFFFFF)" d="M293.797 231.47C293.797 225.579 298.286 220.802 303.822 220.802 305.607 220.802 307.279 221.304 308.731 222.173 308.93 216.468 313.328 211.909 318.739 211.909 324.179 211.909 328.6 216.525 328.75 222.276 330.239 221.346 331.967 220.802 333.818 220.802 339.355 220.802 343.845 225.579 343.845 231.47 343.845 237.361 339.355 242.136 333.818 242.136H303.313V242.111C298.014 241.824 293.797 237.179 293.797 231.47Z"></path><path fill="var(--c-icon, #222222)" fill-rule="evenodd" d="M303.207 244.324L333.818 244.352C340.505 244.352 345.928 238.585 345.928 231.47 345.928 224.355 340.505 218.585 333.818 218.585 332.628 218.585 331.48 218.771 330.395 219.114 328.975 213.681 324.297 209.692 318.739 209.692 313.194 209.692 308.529 213.656 307.095 219.066 306.055 218.753 304.957 218.585 303.822 218.585 297.135 218.585 291.714 224.355 291.714 231.47 291.714 238.366 296.806 243.978 303.207 244.324ZM303.626 239.919C303.558 239.908 303.489 239.901 303.419 239.897 299.222 239.67 295.881 235.992 295.881 231.47 295.881 226.803 299.436 223.018 303.822 223.018 305.236 223.018 306.56 223.417 307.71 224.105 308.343 224.484 309.116 224.484 309.75 224.107 310.383 223.729 310.786 223.027 310.813 222.255 310.971 217.737 314.453 214.126 318.739 214.126 323.048 214.126 326.549 217.782 326.667 222.337 326.687 223.12 327.095 223.834 327.739 224.214 328.383 224.594 329.168 224.584 329.804 224.188 330.984 223.451 332.352 223.018 333.818 223.018 338.205 223.018 341.762 226.803 341.762 231.47 341.762 236.137 338.204 239.919 333.818 239.919H303.626Z"></path><path fill="var(--c-icon, #222222)" d="M218.482 428.896C182.255 428.896 152.783 458.302 152.783 494.445 152.783 530.589 182.255 559.995 218.482 559.995 254.708 559.995 284.181 530.589 284.181 494.445 284.181 458.302 254.708 428.896 218.482 428.896ZM218.482 573.993C174.52 573.993 138.754 538.308 138.754 494.445 138.754 450.584 174.52 414.899 218.482 414.899 262.445 414.899 298.211 450.584 298.211 494.445 298.211 538.308 262.445 573.993 218.482 573.993Z"></path><path fill="var(--c-black, #000000)" d="M218.483 559.995C182.256 559.995 152.784 530.589 152.784 494.445 152.784 458.301 182.256 428.896 218.483 428.896 254.709 428.896 284.181 458.301 284.181 494.445 284.181 530.589 254.709 559.995 218.483 559.995ZM218.483 422.344C178.636 422.344 146.217 454.689 146.217 494.445 146.217 534.202 178.636 566.548 218.483 566.548 258.329 566.548 290.747 534.202 290.747 494.445 290.747 454.689 258.329 422.344 218.483 422.344Z"></path><path fill="var(--c-icon, #222222)" d="M469.518 428.896C433.292 428.896 403.819 458.302 403.819 494.445 403.819 530.589 433.292 559.995 469.518 559.995 505.745 559.995 535.217 530.589 535.217 494.445 535.217 458.302 505.745 428.896 469.518 428.896ZM469.518 573.993C425.557 573.993 389.791 538.308 389.791 494.445 389.791 450.584 425.557 414.899 469.518 414.899 513.482 414.899 549.246 450.584 549.246 494.445 549.246 538.308 513.482 573.993 469.518 573.993Z"></path><path d="M469.518 559.995C433.292 559.995 403.819 530.589 403.819 494.445 403.819 458.301 433.292 428.896 469.518 428.896 505.745 428.896 535.217 458.301 535.217 494.445 535.217 530.589 505.745 559.995 469.518 559.995ZM469.518 422.344C429.671 422.344 397.253 454.689 397.253 494.445 397.253 534.202 429.671 566.548 469.518 566.548 509.365 566.548 541.783 534.202 541.783 494.445 541.783 454.689 509.365 422.344 469.518 422.344Z"></path><path fill="var(--c-icon-bg-d4, #BDBDBD)" d="M288.213 374.451L288.191 374.416C287.958 374.043 287.777 373.642 287.646 373.224L286.436 369.323 282.605 370.507 283.827 374.435C283.95 374.836 284.026 375.25 284.05 375.668L284.057 375.764C284.081 376.183 284.156 376.596 284.28 376.997L294.064 408.52 298.532 407.138 288.757 375.644C288.626 375.225 288.443 374.824 288.213 374.451Z"></path><path fill="var(--c-icon-bg-d4, #BDBDBD)" d="M461.636 488.296L430.32 398.217 436 396.251 467.316 486.331 461.636 488.296Z"></path><path fill="var(--c-icon-primary, #0694F9)" d="M472.116 491.378L469.545 488.974C469.328 488.771 469.164 488.519 469.067 488.239L449.504 431.965 441.931 434.586 462.184 492.849C462.386 493.429 462.729 493.948 463.183 494.361L466.613 497.485C468.301 499.066 470.972 498.949 472.515 497.205 474.006 495.52 473.761 492.915 472.116 491.378Z"></path><path fill="var(--c-icon-bg-d4, #BDBDBD)" d="M283.448 370.775H278.214C277.309 370.775 276.437 370.348 275.884 369.633L271.463 363.922 272.52 363.107 276.942 368.819C277.245 369.209 277.721 369.442 278.214 369.442H283.448C283.762 369.442 284.074 369.404 284.38 369.33L290.346 367.869C291.408 367.609 292.347 367.038 293.066 366.216L294.542 364.524C295.055 363.937 295.708 363.468 296.429 363.169L300.756 361.373 301.269 362.603 296.941 364.4C296.41 364.62 295.929 364.966 295.549 365.4L294.073 367.092C293.174 368.121 291.995 368.838 290.665 369.164L284.698 370.624C284.289 370.724 283.869 370.775 283.448 370.775Z"></path><path fill="var(--c-icon, #222222)" d="M424.534 391.262L413.666 360.002 413.581 360.032C413.242 360.149 412.872 359.97 412.755 359.633L412.633 359.282 411.489 359.677C411.255 359.758 410.998 359.634 410.918 359.4L410.56 358.368C410.478 358.134 410.602 357.878 410.839 357.797 411.073 357.716 411.197 357.46 411.115 357.225L410.865 356.5C410.783 356.266 410.527 356.142 410.292 356.223 410.058 356.304 409.801 356.18 409.719 355.945L409.36 354.914C409.279 354.68 409.405 354.424 409.639 354.343L410.779 353.949 410.673 353.643C410.555 353.306 410.735 352.938 411.073 352.821L416.792 350.842C417.13 350.725 417.5 350.904 417.617 351.241L417.724 351.55 420.788 350.491C420.719 350.118 420.935 349.741 421.306 349.618 421.983 349.395 422.588 349.009 423.105 348.519 423.544 348.102 424.079 347.773 424.692 347.57 425.165 347.414 425.646 347.346 426.117 347.357 426.238 347.166 426.358 346.977 426.472 346.795 425.304 346.452 424.451 345.374 424.451 344.097 424.451 342.544 425.712 341.286 427.268 341.286H429.326C429.887 340.892 430.571 340.66 431.309 340.66 433.212 340.66 434.752 342.199 434.752 344.097 434.752 345.601 433.786 346.879 432.438 347.345 432.085 347.883 431.698 348.506 431.391 349 431.076 349.506 430.785 349.972 430.511 350.4L431.276 352.705C431.408 353.11 431.189 353.547 430.784 353.681L430.596 353.743C429.957 353.954 429.381 354.309 428.883 354.759 428.459 355.144 427.95 355.449 427.37 355.64 426.79 355.832 426.199 355.891 425.628 355.835 424.958 355.77 424.283 355.828 423.645 356.039L423.457 356.101C423.137 356.207 422.796 356.091 422.601 355.838L419.578 356.882 419.7 357.231C419.811 357.552 419.654 357.901 419.346 358.034L430.214 389.296 430.317 389.261C430.638 389.149 430.992 389.318 431.103 389.641 431.304 390.219 431.583 391.021 431.583 391.021 432.121 392.569 435.737 393.088 436.507 395.76L439.311 403.825C439.415 404.122 439.256 404.448 438.957 404.551L433.097 406.579C432.798 406.683 432.471 406.525 432.369 406.227L432.187 405.705C431.548 404.387 427.657 402.367 426.949 400.065L424.161 392.044C424.049 391.725 424.217 391.377 424.534 391.262Z"></path><path fill="var(--c-icon-primary, #0694F9)" d="M406.847 388.281C401.4 392.102 395.837 396.276 393.865 398.655 390.685 402.496 343.179 472.09 327.086 495.688L302.354 416.068 405.552 385.602C407.194 385.117 408.247 387.298 406.847 388.281ZM326.544 508.539C324.756 508.539 323.304 507.09 323.304 505.304 323.304 503.52 324.756 502.071 326.544 502.071 328.334 502.071 329.786 503.52 329.786 505.304 329.786 507.09 328.334 508.539 326.544 508.539ZM431.678 388.583L424.59 368.193C424.557 368.092 424.446 368.039 424.347 368.074L415.873 371.006C415.774 371.041 415.721 371.15 415.756 371.251L415.875 371.595C416.128 372.321 415.732 373.113 414.999 373.349L300.541 410.235 298.372 403.253 291.992 405.226 322.113 502.195C321.492 503.08 321.122 504.158 321.122 505.322 321.122 508.333 323.567 510.773 326.584 510.773 329.255 510.773 331.474 508.859 331.95 506.333 358.986 466.665 398.984 408.208 401.593 405.023 403.029 403.288 414.862 395.043 420.773 390.964 421.516 390.45 422.548 390.787 422.844 391.641 422.877 391.741 422.988 391.794 423.088 391.759L431.561 388.827C431.661 388.793 431.714 388.683 431.678 388.583Z"></path><path fill="var(--c-icon-primary, #0694F9)" d="M226.642 481.841L297.04 412.796C297.698 412.152 298.755 412.16 299.402 412.816 300.048 413.473 300.039 414.528 299.382 415.173L228.705 484.489H228.706C228.706 484.489 224.836 488.322 225.601 490.893 226.346 493.396 229.323 493.884 229.478 493.908L323.946 503.381C323.545 503.917 323.304 504.582 323.304 505.304 323.304 505.803 323.421 506.275 323.623 506.697L229.063 497.216C228.725 497.211 222.801 497.13 222.418 497.044 222.353 497.028 222.239 496.898 222.09 496.693H222.091C223.038 496.54 222.393 495.187 223.594 491.453 223.982 490.25 223.271 489.033 221.87 488.713 221.119 488.541 220.373 488.764 219.835 489.234 217.592 491.197 215.54 491.23 215.084 491.314 214.955 491.336 214.832 491.374 214.714 491.418 214.732 491.036 214.774 490.515 214.875 490.195 215.042 489.665 225.841 482.38 226.642 481.841Z"></path><path fill="var(--c-icon, #222222)" d="M299.222 405.706L291.926 407.955C291.271 408.157 290.576 407.79 290.375 407.137L290.288 406.859C290.085 406.206 290.452 405.513 291.107 405.311L298.403 403.062C298.525 403.025 298.654 403.093 298.691 403.214L299.375 405.42C299.413 405.541 299.344 405.669 299.222 405.706Z"></path><path fill="var(--c-icon, #222222)" d="M261.86 358.024C260.431 358.841 260.78 362.694 261.86 364.028 262.94 365.362 272.815 367.774 275.953 367.825 279.089 367.876 289.556 363.284 296.808 362.925 300.012 362.766 302.889 362.893 305.264 363.02 308.262 363.18 310.458 363.34 311.491 362.925 313.343 362.18 312.469 358.178 307.067 357.1 301.668 356.023 289.118 358.024 282.587 358.127 280.272 358.163 277.435 357.909 274.581 357.656 269.378 357.194 264.118 356.732 261.86 358.024Z"></path><path fill="var(--c-icon, #222222)" d="M218.482 483.407C212.371 483.407 207.417 488.35 207.417 494.447 207.417 500.544 212.371 505.485 218.482 505.485 224.593 505.485 229.547 500.544 229.547 494.447 229.547 488.35 224.593 483.407 218.482 483.407Z"></path><path fill="var(--c-icon, #222222)" d="M469.518 483.407C463.407 483.407 458.453 488.35 458.453 494.447 458.453 500.544 463.407 505.485 469.518 505.485 475.629 505.485 480.583 500.544 480.583 494.447 480.583 488.35 475.629 483.407 469.518 483.407Z"></path><path fill="var(--c-black, #000000)" fill-rule="evenodd" d="M276.02 494.445C276.02 462.792 250.209 437.038 218.483 437.038 203.799 437.038 190.383 442.554 180.205 451.618 179.294 452.43 179.215 453.827 180.028 454.736 180.841 455.645 182.241 455.724 183.153 454.912 192.546 446.546 204.93 441.454 218.483 441.454 247.768 441.454 271.594 465.226 271.594 494.445 271.594 495.664 272.586 496.653 273.807 496.653 275.028 496.653 276.02 495.664 276.02 494.445Z"></path><path fill="var(--c-black, #000000)" fill-rule="evenodd" d="M411.981 494.445C411.981 526.1 437.792 551.854 469.518 551.854 484.55 551.854 498.255 546.073 508.515 536.622 509.413 535.795 509.469 534.397 508.64 533.502 507.812 532.606 506.41 532.551 505.513 533.377 496.042 542.101 483.393 547.438 469.518 547.438 440.232 547.438 416.407 523.665 416.407 494.445 416.407 493.227 415.415 492.237 414.194 492.237 412.972 492.237 411.981 493.227 411.981 494.445Z"></path><path fill="var(--c-icon, #222222)" fill-rule="evenodd" d="M326.468 489.957C317.913 489.957 310.977 496.877 310.977 505.414 310.977 513.95 317.913 520.869 326.468 520.869 335.024 520.869 341.959 513.95 341.959 505.414 341.959 496.877 335.023 489.957 326.468 489.957ZM326.468 494.373C332.579 494.373 337.533 499.316 337.533 505.414 337.533 511.511 332.579 516.453 326.468 516.453 320.357 516.453 315.403 511.511 315.403 505.414 315.403 499.316 320.357 494.373 326.468 494.373Z"></path><path fill="var(--c-icon, #222222)" d="M218.482 428.896C182.255 428.896 152.783 458.302 152.783 494.445 152.783 530.589 182.255 559.995 218.482 559.995 254.708 559.995 284.181 530.589 284.181 494.445 284.181 458.302 254.708 428.896 218.482 428.896ZM218.482 573.993C174.52 573.993 138.754 538.308 138.754 494.445 138.754 450.584 174.52 414.899 218.482 414.899 262.445 414.899 298.211 450.584 298.211 494.445 298.211 538.308 262.445 573.993 218.482 573.993Z"></path><path fill="var(--c-black, #000000)" d="M218.483 559.995C182.256 559.995 152.784 530.589 152.784 494.445 152.784 458.301 182.256 428.896 218.483 428.896 254.709 428.896 284.181 458.301 284.181 494.445 284.181 530.589 254.709 559.995 218.483 559.995ZM218.483 422.344C178.636 422.344 146.217 454.689 146.217 494.445 146.217 534.202 178.636 566.548 218.483 566.548 258.329 566.548 290.747 534.202 290.747 494.445 290.747 454.689 258.329 422.344 218.483 422.344Z"></path><path fill="var(--c-icon, #222222)" d="M469.518 428.896C433.292 428.896 403.819 458.302 403.819 494.445 403.819 530.589 433.292 559.995 469.518 559.995 505.745 559.995 535.217 530.589 535.217 494.445 535.217 458.302 505.745 428.896 469.518 428.896ZM469.518 573.993C425.557 573.993 389.791 538.308 389.791 494.445 389.791 450.584 425.557 414.899 469.518 414.899 513.482 414.899 549.246 450.584 549.246 494.445 549.246 538.308 513.482 573.993 469.518 573.993Z"></path><path d="M469.518 559.995C433.292 559.995 403.819 530.589 403.819 494.445 403.819 458.301 433.292 428.896 469.518 428.896 505.745 428.896 535.217 458.301 535.217 494.445 535.217 530.589 505.745 559.995 469.518 559.995ZM469.518 422.344C429.671 422.344 397.253 454.689 397.253 494.445 397.253 534.202 429.671 566.548 469.518 566.548 509.365 566.548 541.783 534.202 541.783 494.445 541.783 454.689 509.365 422.344 469.518 422.344Z"></path><path fill="var(--c-icon-bg-d4, #BDBDBD)" d="M288.213 374.451L288.191 374.416C287.958 374.043 287.777 373.642 287.646 373.224L286.436 369.323 282.605 370.507 283.827 374.435C283.95 374.836 284.026 375.25 284.05 375.668L284.057 375.764C284.081 376.183 284.156 376.596 284.28 376.997L294.064 408.52 298.532 407.138 288.757 375.644C288.626 375.225 288.443 374.824 288.213 374.451Z"></path><path fill="var(--c-icon-bg-d4, #BDBDBD)" d="M461.636 488.296L430.32 398.217 436 396.251 467.316 486.331 461.636 488.296Z"></path><path fill="var(--c-icon-primary, #0694F9)" d="M472.116 491.378L469.545 488.974C469.328 488.771 469.164 488.519 469.067 488.239L449.504 431.965 441.931 434.586 462.184 492.849C462.386 493.429 462.729 493.948 463.183 494.361L466.613 497.485C468.301 499.066 470.972 498.949 472.515 497.205 474.006 495.52 473.761 492.915 472.116 491.378Z"></path><path fill="var(--c-icon-bg-d4, #BDBDBD)" d="M283.448 370.775H278.214C277.309 370.775 276.437 370.348 275.884 369.633L271.463 363.922 272.52 363.107 276.942 368.819C277.245 369.209 277.721 369.442 278.214 369.442H283.448C283.762 369.442 284.074 369.404 284.38 369.33L290.346 367.869C291.408 367.609 292.347 367.038 293.066 366.216L294.542 364.524C295.055 363.937 295.708 363.468 296.429 363.169L300.756 361.373 301.269 362.603 296.941 364.4C296.41 364.62 295.929 364.966 295.549 365.4L294.073 367.092C293.174 368.121 291.995 368.838 290.665 369.164L284.698 370.624C284.289 370.724 283.869 370.775 283.448 370.775Z"></path><path fill="var(--c-icon, #222222)" d="M424.534 391.262L413.666 360.002 413.581 360.032C413.242 360.149 412.872 359.97 412.755 359.633L412.633 359.282 411.489 359.677C411.255 359.758 410.998 359.634 410.918 359.4L410.56 358.368C410.478 358.134 410.602 357.878 410.839 357.797 411.073 357.716 411.197 357.46 411.115 357.225L410.865 356.5C410.783 356.266 410.527 356.142 410.292 356.223 410.058 356.304 409.801 356.18 409.719 355.945L409.36 354.914C409.279 354.68 409.405 354.424 409.639 354.343L410.779 353.949 410.673 353.643C410.555 353.306 410.735 352.938 411.073 352.821L416.792 350.842C417.13 350.725 417.5 350.904 417.617 351.241L417.724 351.55 420.788 350.491C420.719 350.118 420.935 349.741 421.306 349.618 421.983 349.395 422.588 349.009 423.105 348.519 423.544 348.102 424.079 347.773 424.692 347.57 425.165 347.414 425.646 347.346 426.117 347.357 426.238 347.166 426.358 346.977 426.472 346.795 425.304 346.452 424.451 345.374 424.451 344.097 424.451 342.544 425.712 341.286 427.268 341.286H429.326C429.887 340.892 430.571 340.66 431.309 340.66 433.212 340.66 434.752 342.199 434.752 344.097 434.752 345.601 433.786 346.879 432.438 347.345 432.085 347.883 431.698 348.506 431.391 349 431.076 349.506 430.785 349.972 430.511 350.4L431.276 352.705C431.408 353.11 431.189 353.547 430.784 353.681L430.596 353.743C429.957 353.954 429.381 354.309 428.883 354.759 428.459 355.144 427.95 355.449 427.37 355.64 426.79 355.832 426.199 355.891 425.628 355.835 424.958 355.77 424.283 355.828 423.645 356.039L423.457 356.101C423.137 356.207 422.796 356.091 422.601 355.838L419.578 356.882 419.7 357.231C419.811 357.552 419.654 357.901 419.346 358.034L430.214 389.296 430.317 389.261C430.638 389.149 430.992 389.318 431.103 389.641 431.304 390.219 431.583 391.021 431.583 391.021 432.121 392.569 435.737 393.088 436.507 395.76L439.311 403.825C439.415 404.122 439.256 404.448 438.957 404.551L433.097 406.579C432.798 406.683 432.471 406.525 432.369 406.227L432.187 405.705C431.548 404.387 427.657 402.367 426.949 400.065L424.161 392.044C424.049 391.725 424.217 391.377 424.534 391.262Z"></path><path fill="var(--c-icon-primary, #0694F9)" d="M406.847 388.281C401.4 392.102 395.837 396.276 393.865 398.655 390.685 402.496 343.179 472.09 327.086 495.688L302.354 416.068 405.552 385.602C407.194 385.117 408.247 387.298 406.847 388.281ZM326.544 508.539C324.756 508.539 323.304 507.09 323.304 505.304 323.304 503.52 324.756 502.071 326.544 502.071 328.334 502.071 329.786 503.52 329.786 505.304 329.786 507.09 328.334 508.539 326.544 508.539ZM431.678 388.583L424.59 368.193C424.557 368.092 424.446 368.039 424.347 368.074L415.873 371.006C415.774 371.041 415.721 371.15 415.756 371.251L415.875 371.595C416.128 372.321 415.732 373.113 414.999 373.349L300.541 410.235 298.372 403.253 291.992 405.226 322.113 502.195C321.492 503.08 321.122 504.158 321.122 505.322 321.122 508.333 323.567 510.773 326.584 510.773 329.255 510.773 331.474 508.859 331.95 506.333 358.986 466.665 398.984 408.208 401.593 405.023 403.029 403.288 414.862 395.043 420.773 390.964 421.516 390.45 422.548 390.787 422.844 391.641 422.877 391.741 422.988 391.794 423.088 391.759L431.561 388.827C431.661 388.793 431.714 388.683 431.678 388.583Z"></path><path fill="var(--c-icon-primary, #0694F9)" d="M226.642 481.841L297.04 412.796C297.698 412.152 298.755 412.16 299.402 412.816 300.048 413.473 300.039 414.528 299.382 415.173L228.705 484.489H228.706C228.706 484.489 224.836 488.322 225.601 490.893 226.346 493.396 229.323 493.884 229.478 493.908L323.946 503.381C323.545 503.917 323.304 504.582 323.304 505.304 323.304 505.803 323.421 506.275 323.623 506.697L229.063 497.216C228.725 497.211 222.801 497.13 222.418 497.044 222.353 497.028 222.239 496.898 222.09 496.693H222.091C223.038 496.54 222.393 495.187 223.594 491.453 223.982 490.25 223.271 489.033 221.87 488.713 221.119 488.541 220.373 488.764 219.835 489.234 217.592 491.197 215.54 491.23 215.084 491.314 214.955 491.336 214.832 491.374 214.714 491.418 214.732 491.036 214.774 490.515 214.875 490.195 215.042 489.665 225.841 482.38 226.642 481.841Z"></path><path fill="var(--c-icon, #222222)" d="M299.222 405.706L291.926 407.955C291.271 408.157 290.576 407.79 290.375 407.137L290.288 406.859C290.085 406.206 290.452 405.513 291.107 405.311L298.403 403.062C298.525 403.025 298.654 403.093 298.691 403.214L299.375 405.42C299.413 405.541 299.344 405.669 299.222 405.706Z"></path><path fill="var(--c-icon, #222222)" d="M261.86 358.024C260.431 358.841 260.78 362.694 261.86 364.028 262.94 365.362 272.815 367.774 275.953 367.825 279.089 367.876 289.556 363.284 296.808 362.925 300.012 362.766 302.889 362.893 305.264 363.02 308.262 363.18 310.458 363.34 311.491 362.925 313.343 362.18 312.469 358.178 307.067 357.1 301.668 356.023 289.118 358.024 282.587 358.127 280.272 358.163 277.435 357.909 274.581 357.656 269.378 357.194 264.118 356.732 261.86 358.024Z"></path><path fill="var(--c-icon, #222222)" d="M218.482 483.407C212.371 483.407 207.417 488.35 207.417 494.447 207.417 500.544 212.371 505.485 218.482 505.485 224.593 505.485 229.547 500.544 229.547 494.447 229.547 488.35 224.593 483.407 218.482 483.407Z"></path><path fill="var(--c-icon, #222222)" d="M469.518 483.407C463.407 483.407 458.453 488.35 458.453 494.447 458.453 500.544 463.407 505.485 469.518 505.485 475.629 505.485 480.583 500.544 480.583 494.447 480.583 488.35 475.629 483.407 469.518 483.407Z"></path><path fill="var(--c-black, #000000)" fill-rule="evenodd" d="M276.02 494.445C276.02 462.792 250.209 437.038 218.483 437.038 203.799 437.038 190.383 442.554 180.205 451.618 179.294 452.43 179.215 453.827 180.028 454.736 180.841 455.645 182.241 455.724 183.153 454.912 192.546 446.546 204.93 441.454 218.483 441.454 247.768 441.454 271.594 465.226 271.594 494.445 271.594 495.664 272.586 496.653 273.807 496.653 275.028 496.653 276.02 495.664 276.02 494.445Z"></path><path fill="var(--c-black, #000000)" fill-rule="evenodd" d="M411.981 494.445C411.981 526.1 437.792 551.854 469.518 551.854 484.55 551.854 498.255 546.073 508.515 536.622 509.413 535.795 509.469 534.397 508.64 533.502 507.812 532.606 506.41 532.551 505.513 533.377 496.042 542.101 483.393 547.438 469.518 547.438 440.232 547.438 416.407 523.665 416.407 494.445 416.407 493.227 415.415 492.237 414.194 492.237 412.972 492.237 411.981 493.227 411.981 494.445Z"></path><path fill="var(--c-icon, #222222)" fill-rule="evenodd" d="M326.468 489.957C317.913 489.957 310.977 496.877 310.977 505.414 310.977 513.95 317.913 520.869 326.468 520.869 335.024 520.869 341.959 513.95 341.959 505.414 341.959 496.877 335.023 489.957 326.468 489.957ZM326.468 494.373C332.579 494.373 337.533 499.316 337.533 505.414 337.533 511.511 332.579 516.453 326.468 516.453 320.357 516.453 315.403 511.511 315.403 505.414 315.403 499.316 320.357 494.373 326.468 494.373Z"></path></svg>
