<!-- Icona SVG step 02  -->

<svg viewBox="0 0 667 667" xmlns="http://www.w3.org/2000/svg" fill="var(--c-text)" role="img" aria-hidden="true" aria-label="Scegli la tua avventura" class="img-hMnTm1"><path fill="var(--c-icon, #222222)" fill-rule="evenodd" d="M159.332 562.5H133.333C131.034 562.5 129.167 564.367 129.167 566.667 129.167 568.966 131.034 570.833 133.333 570.833H159.332C161.632 570.833 163.499 568.966 163.499 566.667 163.499 564.367 161.632 562.5 159.332 562.5ZM209.332 562.5H175.999C173.699 562.5 171.832 564.367 171.832 566.667 171.832 568.966 173.699 570.833 175.999 570.833H209.332C211.632 570.833 213.499 568.966 213.499 566.667 213.499 564.367 211.632 562.5 209.332 562.5ZM259.332 562.5C248.12 562.5 236.978 562.5 225.999 562.5 223.699 562.5 221.832 564.367 221.832 566.667 221.832 568.966 223.699 570.833 225.999 570.833H259.332C261.632 570.833 263.499 568.966 263.499 566.667 263.499 564.367 261.632 562.5 259.332 562.5ZM309.333 562.5C298.257 562.5 287.116 562.5 275.999 562.5 273.7 562.5 271.832 564.367 271.832 566.667 271.832 568.966 273.7 570.833 275.999 570.833 287.116 570.833 298.257 570.833 309.333 570.833 311.632 570.833 313.499 568.966 313.499 566.667 313.499 564.367 311.632 562.5 309.333 562.5ZM359.333 562.5C348.401 562.5 337.258 562.5 325.999 562.5 323.7 562.5 321.833 564.367 321.833 566.667 321.833 568.966 323.7 570.833 325.999 570.833 337.258 570.833 348.401 570.833 359.333 570.833 361.632 570.833 363.499 568.966 363.499 566.667 363.499 564.367 361.632 562.5 359.333 562.5ZM409.333 562.5C398.6 562.5 387.449 562.5 375.999 562.5 373.7 562.5 371.833 564.367 371.833 566.667 371.833 568.966 373.7 570.833 375.999 570.833 387.449 570.833 398.6 570.833 409.333 570.833 411.632 570.833 413.499 568.966 413.499 566.667 413.499 564.367 411.632 562.5 409.333 562.5ZM459.333 562.5C448.978 562.5 437.807 562.5 425.999 562.5 423.7 562.5 421.833 564.367 421.833 566.667 421.833 568.966 423.7 570.833 425.999 570.833 437.807 570.833 448.978 570.833 459.333 570.833 461.632 570.833 463.5 568.966 463.5 566.667 463.5 564.367 461.632 562.5 459.333 562.5ZM503.986 550.14C495.776 556.261 486.012 560.413 475.394 561.896 473.116 562.214 471.525 564.321 471.843 566.599 472.161 568.876 474.268 570.467 476.546 570.149 488.587 568.468 499.658 563.762 508.967 556.821 510.81 555.447 511.191 552.834 509.816 550.99 508.442 549.147 505.829 548.766 503.986 550.14ZM528.156 511.258C526.244 521.773 521.7 531.37 515.232 539.343 513.784 541.129 514.057 543.756 515.843 545.204 517.629 546.653 520.255 546.379 521.704 544.593 529.037 535.553 534.187 524.671 536.355 512.749 536.766 510.487 535.263 508.316 533.001 507.904 530.738 507.493 528.567 508.996 528.156 511.258ZM519.32 466.327C524.935 475.107 528.294 485.199 529.018 495.692 529.177 497.986 531.168 499.72 533.462 499.562 535.756 499.404 537.49 497.412 537.332 495.118 536.511 483.226 532.704 471.788 526.341 461.837 525.102 459.9 522.523 459.333 520.586 460.572 518.648 461.811 518.081 464.389 519.32 466.327ZM482.24 439.471C492.312 442.063 501.652 447.147 509.352 454.347 511.032 455.918 513.671 455.829 515.242 454.149 516.812 452.47 516.724 449.831 515.044 448.26 506.317 440.1 495.731 434.338 484.316 431.401 482.089 430.828 479.816 432.17 479.243 434.398 478.67 436.625 480.013 438.898 482.24 439.471ZM433.455 437.5H466.781C469.08 437.504 470.951 435.641 470.955 433.341 470.959 431.041 469.096 429.171 466.796 429.167H433.455C431.155 429.167 429.288 431.034 429.288 433.333 429.288 435.633 431.155 437.5 433.455 437.5ZM282.138 432.98C287.449 435.862 293.533 437.5 300 437.5H316.788C319.088 437.5 320.955 435.633 320.955 433.333 320.955 431.034 319.088 429.167 316.788 429.167H300C294.972 429.167 290.242 427.896 286.113 425.656 284.091 424.559 281.56 425.309 280.463 427.331 279.366 429.352 280.117 431.883 282.138 432.98ZM333.455 437.5H366.788C369.088 437.5 370.955 435.633 370.955 433.333 370.955 431.034 369.088 429.167 366.788 429.167H333.455C331.155 429.167 329.288 431.034 329.288 433.333 329.288 435.633 331.155 437.5 333.455 437.5ZM383.455 437.5H416.788C419.088 437.5 420.955 435.633 420.955 433.333 420.955 431.034 419.088 429.167 416.788 429.167H383.455C381.155 429.167 379.288 431.034 379.288 433.333 379.288 435.633 381.155 437.5 383.455 437.5ZM265.841 384.527C263.66 389.342 262.5 394.611 262.5 400 262.5 400 262.5 402.301 262.5 400 262.5 407.517 264.713 414.517 268.52 420.385 269.772 422.315 272.354 422.865 274.283 421.613 276.213 420.362 276.763 417.779 275.511 415.85 272.551 411.287 270.833 405.844 270.833 400 270.833 402.301 270.833 400 270.833 400 270.833 395.809 271.735 391.711 273.432 387.965 274.381 385.87 273.451 383.399 271.356 382.45 269.261 381.501 266.79 382.432 265.841 384.527ZM311.818 362.5H300C291.815 362.5 283.905 365.176 277.441 370.044 275.604 371.428 275.236 374.042 276.619 375.879 278.003 377.716 280.617 378.084 282.454 376.701 287.482 372.915 293.634 370.833 300 370.833 303.702 370.833 307.652 370.833 311.818 370.833 314.118 370.833 315.985 368.966 315.985 366.667 315.985 364.367 314.118 362.5 311.818 362.5ZM511.818 362.5H478.485C476.185 362.5 474.318 364.367 474.318 366.667 474.318 368.966 476.185 370.833 478.485 370.833H511.818C514.118 370.833 515.985 368.966 515.985 366.667 515.985 364.367 514.118 362.5 511.818 362.5ZM461.818 362.5H428.484C426.185 362.5 424.318 364.367 424.318 366.667 424.318 368.966 426.185 370.833 428.484 370.833H461.818C464.118 370.833 465.985 368.966 465.985 366.667 465.985 364.367 464.118 362.5 461.818 362.5ZM411.818 362.5H378.484C376.185 362.5 374.318 364.367 374.318 366.667 374.318 368.966 376.185 370.833 378.484 370.833H411.818C414.117 370.833 415.984 368.966 415.984 366.667 415.984 364.367 414.117 362.5 411.818 362.5ZM361.818 362.5H328.485C326.185 362.5 324.318 364.367 324.318 366.667 324.318 368.966 326.185 370.833 328.485 370.833H361.818C364.117 370.833 365.985 368.966 365.985 366.667 365.985 364.367 364.117 362.5 361.818 362.5ZM552.655 345.051C546.388 352.986 537.554 358.801 527.404 361.236 525.168 361.773 523.788 364.024 524.325 366.26 524.862 368.496 527.113 369.876 529.349 369.34 541.344 366.461 551.788 359.594 559.195 350.217 560.62 348.412 560.312 345.79 558.508 344.364 556.703 342.939 554.081 343.247 552.655 345.051ZM559.997 301.728C561.639 306.49 562.5 311.534 562.5 316.667 562.5 316.667 562.5 316.667 562.5 316.667 562.5 321.941 561.61 327.007 559.971 331.723 559.216 333.895 560.366 336.271 562.538 337.027 564.711 337.782 567.087 336.631 567.842 334.459 569.78 328.886 570.833 322.899 570.833 316.667 570.833 316.667 570.833 316.667 570.833 316.667 570.833 310.601 569.816 304.639 567.875 299.011 567.126 296.837 564.752 295.681 562.578 296.43 560.404 297.18 559.247 299.553 559.997 301.728ZM527.507 272.134C535.606 274.105 543.085 278.266 549.076 284.258 550.38 285.562 551.597 286.936 552.724 288.372 554.144 290.181 556.765 290.498 558.574 289.078 560.383 287.658 560.7 285.037 559.28 283.228 557.948 281.531 556.509 279.906 554.968 278.365 547.888 271.285 539.049 266.367 529.478 264.037 527.244 263.493 524.988 264.865 524.444 267.1 523.9 269.334 525.273 271.59 527.507 272.134ZM478.606 270.833C490.295 270.833 501.576 270.833 511.939 270.833 514.239 270.833 516.106 268.966 516.106 266.667 516.106 264.367 514.239 262.5 511.939 262.5 501.576 262.5 490.295 262.5 478.606 262.5 476.306 262.5 474.439 264.367 474.439 266.667 474.439 268.966 476.306 270.833 478.606 270.833ZM428.606 270.833C439.591 270.833 450.838 270.833 461.939 270.833 464.239 270.833 466.106 268.966 466.106 266.667 466.106 264.367 464.239 262.5 461.939 262.5 450.838 262.5 439.591 262.5 428.606 262.5 426.306 262.5 424.439 264.367 424.439 266.667 424.439 268.966 426.306 270.833 428.606 270.833ZM378.606 270.833C388.741 270.833 400.044 270.833 411.939 270.833 414.239 270.833 416.106 268.966 416.106 266.667 416.106 264.367 414.239 262.5 411.939 262.5 400.044 262.5 388.741 262.5 378.606 262.5 376.306 262.5 374.439 264.367 374.439 266.667 374.439 268.966 376.306 270.833 378.606 270.833ZM332.56 248.942C337.778 260.326 348.53 268.645 361.371 270.462 363.648 270.784 365.758 269.197 366.08 266.92 366.403 264.643 364.815 262.533 362.539 262.211 352.552 260.798 344.194 254.324 340.136 245.47 339.178 243.379 336.703 242.46 334.612 243.418 332.522 244.376 331.602 246.851 332.56 248.942ZM348.688 200.424C345.58 202.122 342.7 204.267 340.15 206.817 333.745 213.222 329.897 221.704 329.261 230.681 329.098 232.974 330.828 234.969 333.122 235.131 335.416 235.294 337.41 233.564 337.573 231.27 338.068 224.288 341.061 217.691 346.043 212.709 348.026 210.726 350.266 209.058 352.683 207.737 354.702 206.635 355.445 204.101 354.343 202.083 353.24 200.065 350.707 199.321 348.688 200.424ZM450 195.833H416.667C414.367 195.833 412.5 197.7 412.5 200 412.5 202.3 414.367 204.167 416.667 204.167H450C452.3 204.167 454.167 202.3 454.167 200 454.167 197.7 452.3 195.833 450 195.833ZM500 195.833H466.667C464.367 195.833 462.5 197.7 462.5 200 462.5 202.3 464.367 204.167 466.667 204.167H500C502.3 204.167 504.167 202.3 504.167 200 504.167 197.7 502.3 195.833 500 195.833ZM400 195.833H366.667C364.367 195.833 362.5 197.7 362.5 200 362.5 202.3 364.367 204.167 366.667 204.167H400C402.3 204.167 404.167 202.3 404.167 200 404.167 197.7 402.3 195.833 400 195.833Z"></path><path fill="var(--c-icon-bg-d2, #EEEEEE)" d="M500 72.223C476.988 72.223 458.333 90.877 458.333 113.889 458.333 130.688 464.186 135.381 495.718 181.092 497.786 184.08 502.211 184.08 504.282 181.092 535.812 135.38 541.667 130.688 541.667 113.889 541.667 90.877 523.01 72.223 500 72.223Z"></path><circle cx="500.333" cy="111.836" r="22.222" fill="var(--c-icon-primary, #0694F9)" fill-rule="evenodd"></circle><path fill="var(--c-icon, #222222)" fill-rule="evenodd" d="M500 70.139C475.837 70.139 456.25 89.727 456.25 113.889 456.25 122.683 457.758 128.314 463.416 137.722 468.834 146.731 478.199 159.364 494.003 182.275 494.004 182.276 494.004 182.277 494.005 182.278 496.9 186.461 503.095 186.462 505.995 182.279 505.995 182.278 505.996 182.276 505.997 182.275 521.8 159.364 531.166 146.731 536.584 137.722 542.242 128.314 543.75 122.683 543.75 113.889 543.75 89.727 524.16 70.139 500 70.139ZM500 74.306C521.859 74.306 539.583 92.028 539.583 113.889 539.583 121.895 538.164 127.009 533.013 135.575 527.621 144.539 518.295 157.107 502.57 179.906 501.327 181.698 498.672 181.7 497.431 179.907 481.704 157.108 472.378 144.54 466.987 135.575 461.835 127.009 460.417 121.895 460.417 113.889 460.417 92.028 478.138 74.306 500 74.306ZM500.333 89.613C512.598 89.613 522.555 99.571 522.555 111.836 522.555 124.1 512.598 134.058 500.333 134.058 488.068 134.058 478.111 124.1 478.111 111.836 478.111 99.571 488.068 89.613 500.333 89.613ZM500.333 93.78C510.298 93.78 518.388 101.87 518.388 111.836 518.388 121.801 510.298 129.891 500.333 129.891 490.368 129.891 482.278 121.801 482.278 111.836 482.278 101.87 490.368 93.78 500.333 93.78Z"></path><path fill="var(--c-icon-bg-d2, #EEEEEE)" d="M400 305.556C376.988 305.556 358.333 324.211 358.333 347.223 358.333 364.022 364.186 368.714 395.718 414.425 397.786 417.414 402.211 417.414 404.282 414.425 435.812 368.714 441.667 364.022 441.667 347.223 441.667 324.211 423.01 305.556 400 305.556Z"></path><circle cx="400.333" cy="345.169" r="22.222" fill="var(--c-icon-primary, #0694F9)" fill-rule="evenodd"></circle><path fill="var(--c-icon, #222222)" fill-rule="evenodd" d="M400 303.473C375.837 303.473 356.25 323.06 356.25 347.223 356.25 356.016 357.758 361.648 363.416 371.056 368.834 380.064 378.199 392.698 394.003 415.608 394.004 415.609 394.004 415.61 394.005 415.611 396.9 419.794 403.095 419.796 405.995 415.612 405.995 415.611 405.996 415.61 405.997 415.608 421.8 392.697 431.166 380.064 436.584 371.056 442.242 361.648 443.75 356.016 443.75 347.223 443.75 323.06 424.16 303.473 400 303.473ZM400 307.639C421.859 307.639 439.583 325.361 439.583 347.223 439.583 355.229 438.164 360.342 433.013 368.908 427.621 377.873 418.295 390.44 402.57 413.239 401.327 415.032 398.672 415.033 397.431 413.24 381.704 390.441 372.378 377.873 366.987 368.908 361.835 360.342 360.417 355.229 360.417 347.223 360.417 325.361 378.138 307.639 400 307.639ZM400.333 322.947C412.598 322.947 422.555 332.904 422.555 345.169 422.555 357.434 412.598 367.391 400.333 367.391 388.068 367.391 378.111 357.434 378.111 345.169 378.111 332.904 388.068 322.947 400.333 322.947ZM400.333 327.113C410.298 327.113 418.388 335.204 418.388 345.169 418.388 355.134 410.298 363.224 400.333 363.224 390.368 363.224 382.278 355.134 382.278 345.169 382.278 335.204 390.368 327.113 400.333 327.113Z"></path><path fill="var(--c-icon-bg-d2, #EEEEEE)" d="M133.333 334.866C87.309 334.866 50 370.985 50 415.541 50 448.068 61.706 457.153 124.769 545.661 128.905 551.446 137.755 551.446 141.898 545.661 204.958 457.153 216.667 448.068 216.667 415.541 216.667 370.985 179.353 334.866 133.333 334.866Z"></path><ellipse rx="44.444" ry="43.027" cx="133.999" cy="411.565" fill="var(--c-icon-primary, #0694F9)" fill-rule="evenodd"></ellipse><path fill="var(--c-icon, #222222)" fill-rule="evenodd" d="M133.333 332.782C86.14 332.782 47.917 369.853 47.917 415.541 47.917 432.207 50.889 442.876 61.966 460.707 72.789 478.13 91.501 502.56 123.072 546.869 123.073 546.87 123.074 546.871 123.074 546.872 128.029 553.803 138.63 553.804 143.592 546.873 143.593 546.872 143.594 546.871 143.595 546.869 175.164 502.56 193.876 478.129 204.699 460.707 215.777 442.876 218.75 432.207 218.75 415.541 218.75 369.853 180.522 332.782 133.333 332.782ZM133.333 336.949C178.184 336.949 214.583 372.117 214.583 415.541 214.583 431.402 211.702 441.539 201.16 458.509 190.364 475.887 171.693 500.251 140.204 544.448 136.881 549.089 129.782 549.09 126.464 544.449 94.973 500.252 76.301 475.887 65.505 458.509 54.964 441.539 52.083 431.402 52.083 415.541 52.083 372.117 88.478 336.949 133.333 336.949ZM133.999 368.538C158.529 368.538 178.443 387.818 178.443 411.565 178.443 435.312 158.529 454.592 133.999 454.592 109.47 454.592 89.555 435.312 89.555 411.565 89.555 387.818 109.47 368.538 133.999 368.538ZM133.999 372.704C156.192 372.704 174.277 390.079 174.277 411.565 174.277 433.05 156.192 450.425 133.999 450.425 111.806 450.425 93.722 433.05 93.722 411.565 93.722 390.079 111.806 372.704 133.999 372.704Z"></path></svg>