<!-- Icona SVG step 01  -->

<svg viewBox="0 0 667 667" xmlns="http://www.w3.org/2000/svg" fill="var(--c-text)" role="img" aria-hidden="true" aria-label="Confronta gli itinerari" class="img-hMnTm1"><path fill="var(--c-icon-bg-d2, #EEEEEE)" fill-rule="evenodd" d="M469.792 372.893L562.649 504.44H376.935L469.792 372.893Z"></path><path fill="var(--c-icon, #222222)" fill-rule="evenodd" d="M471.372 371.777C471.01 371.264 470.42 370.958 469.792 370.958 469.163 370.958 468.574 371.264 468.211 371.777L375.354 503.325C374.937 503.915 374.884 504.689 375.217 505.33 375.549 505.972 376.212 506.375 376.935 506.375H562.649C563.372 506.375 564.034 505.972 564.366 505.33 564.699 504.689 564.646 503.915 564.229 503.325L471.372 371.777ZM469.792 376.247L558.915 502.506C558.915 502.506 380.668 502.506 380.668 502.506L469.792 376.247Z"></path><path fill="var(--c-icon-bg-d2, #EEEEEE)" fill-rule="evenodd" d="M333.333 130.871L468.889 501.095C468.889 501.095 197.778 501.095 197.778 501.095L333.333 130.871Z"></path><path fill="var(--c-icon-bg, #FFFFFF)" fill-rule="evenodd" d="M365.195 217.89L333.333 130.871 301.615 217.5C303.388 217.894 305.055 219.103 306.611 220.847 309.183 223.731 311.532 228.152 313.506 232.918 314.584 235.43 316.923 237.06 319.518 237.11 322.116 237.16 324.509 235.618 325.671 233.146L329.215 225.648C330.748 222.387 333.475 219.94 336.756 218.884 340.036 217.827 343.581 218.253 346.557 220.062 346.557 220.062 351.067 222.804 351.067 222.804 353.101 224.04 355.604 224.012 357.612 222.73L365.195 217.89Z"></path><path fill="var(--c-icon, #222222)" fill-rule="evenodd" d="M335.646 122.64C335.274 121.626 334.356 120.958 333.333 120.958 332.31 120.958 331.392 121.626 331.021 122.64L191.836 502.777C191.538 503.589 191.637 504.505 192.1 505.225 192.562 505.944 193.329 506.375 194.148 506.375H472.518C473.338 506.375 474.105 505.944 474.567 505.225 475.029 504.505 475.128 503.589 474.831 502.777L335.646 122.64ZM299.878 222.244L197.778 501.095C197.778 501.095 468.889 501.095 468.889 501.095L367.022 222.881 360.166 227.257C356.618 229.522 352.197 229.572 348.605 227.388L344.094 224.646C342.303 223.557 340.169 223.301 338.194 223.937 336.219 224.573 334.577 226.046 333.654 228.009 332.557 230.343 331.349 232.915 330.11 235.507 328.093 239.798 323.938 242.475 319.429 242.389 314.92 242.302 310.858 239.468 308.987 235.102 308.983 235.092 308.979 235.082 308.974 235.071 307.25 230.905 305.259 227.001 303.011 224.482 302.002 223.35 300.984 222.491 299.878 222.244ZM301.685 217.309C303.395 217.899 305.059 219.107 306.611 220.847 309.183 223.731 311.532 228.152 313.506 232.918 314.584 235.43 316.923 237.06 319.518 237.11 322.116 237.16 324.509 235.618 325.671 233.146L329.215 225.648C330.748 222.387 333.475 219.94 336.756 218.884 340.036 217.827 343.581 218.253 346.557 220.062 346.557 220.062 351.067 222.804 351.067 222.804 353.101 224.04 355.604 224.012 357.612 222.73L365.195 217.89 333.333 130.871 301.685 217.309Z"></path><path fill="var(--c-icon-bg-d2, #EEEEEE)" fill-rule="evenodd" d="M206.25 297.804L327.083 504.529H85.417L206.25 297.804Z"></path><path fill="var(--c-icon-bg, #FFFFFF)" fill-rule="evenodd" d="M236.522 349.594L206.25 297.804 175.971 349.606 176.733 349.381C178.659 349.514 180.613 350.562 182.407 352.43 184.561 354.672 186.594 358.164 188.366 362.048 189.309 364.052 191.533 365.315 193.943 365.213 196.353 365.112 198.438 363.666 199.17 361.59L200.759 357.108C201.968 353.676 205.334 351.229 209.306 350.895 213.279 350.561 217.088 352.403 218.979 355.575 218.979 355.575 218.989 355.592 218.989 355.592 219.732 356.835 221.139 357.638 222.702 357.71 224.263 357.782 225.752 357.114 226.631 355.947 229.011 352.7 232.119 350.001 235.528 349.409L236.522 349.594Z"></path><path fill="var(--c-icon, #222222)" fill-rule="evenodd" d="M208.1 296.955C207.742 296.343 207.028 295.958 206.25 295.958 205.472 295.958 204.758 296.343 204.4 296.955L83.567 503.68C83.232 504.252 83.259 504.938 83.637 505.488 84.015 506.039 84.689 506.375 85.417 506.375H327.083C327.811 506.375 328.485 506.039 328.863 505.488 329.241 504.938 329.268 504.252 328.933 503.68L208.1 296.955ZM176.229 353.178L88.842 502.683C88.842 502.683 323.658 502.683 323.658 502.683L236.271 353.179C233.853 353.626 231.847 355.764 230.156 358.074 230.151 358.081 230.147 358.087 230.141 358.094 228.43 360.369 225.528 361.673 222.486 361.533 219.444 361.393 216.703 359.829 215.257 357.409L215.246 357.389C214.161 355.571 211.978 354.514 209.7 354.706 207.422 354.898 205.492 356.301 204.799 358.269L203.21 362.751C201.941 366.353 198.322 368.861 194.14 369.037 189.958 369.213 186.097 367.02 184.461 363.54 184.458 363.534 184.456 363.528 184.453 363.521 182.877 360.066 181.12 356.932 179.204 354.938 178.282 353.978 177.4 353.266 176.41 353.197 176.349 353.193 176.289 353.186 176.229 353.178ZM178.274 349.68C179.688 350.13 181.091 351.06 182.407 352.43 184.561 354.672 186.594 358.164 188.366 362.048 189.309 364.052 191.533 365.315 193.943 365.213 196.353 365.112 198.438 363.666 199.17 361.59L200.759 357.108C201.968 353.676 205.334 351.229 209.306 350.895 213.279 350.561 217.088 352.403 218.979 355.575 218.979 355.575 218.989 355.592 218.989 355.592 219.732 356.835 221.139 357.638 222.702 357.71 224.263 357.782 225.752 357.114 226.631 355.947 228.711 353.109 231.348 350.689 234.255 349.73L206.25 301.818 178.274 349.68Z"></path><path fill="var(--c-icon-primary, #0694F9)" fill-rule="evenodd" d="M434.265 485.761C434.265 485.761 431.483 484.371 426.811 482.035 425.783 481.52 424.531 481.938 424.016 482.966 423.502 483.995 423.92 485.247 424.948 485.761 429.62 488.097 432.402 489.488 432.402 489.488 433.43 490.002 434.683 489.585 435.197 488.556 435.711 487.528 435.293 486.276 434.265 485.761ZM419.358 478.308C417.062 477.16 414.562 475.91 411.904 474.581 410.876 474.067 409.624 474.484 409.109 475.513 408.595 476.541 409.013 477.794 410.041 478.308 412.699 479.637 415.198 480.887 417.495 482.035 418.523 482.549 419.775 482.131 420.29 481.103 420.804 480.075 420.386 478.822 419.358 478.308ZM404.451 470.854C402.039 469.648 399.546 468.402 396.997 467.128 395.969 466.613 394.716 467.031 394.202 468.059 393.688 469.088 394.105 470.34 395.134 470.854 397.682 472.129 400.176 473.375 402.587 474.581 403.616 475.095 404.868 474.678 405.383 473.649 405.897 472.621 405.479 471.369 404.451 470.854ZM389.544 463.401C387.079 462.168 384.587 460.923 382.09 459.674 381.062 459.16 379.809 459.577 379.295 460.606 378.781 461.634 379.198 462.886 380.227 463.401 382.724 464.649 385.216 465.895 387.68 467.127 388.709 467.642 389.961 467.224 390.475 466.196 390.99 465.167 390.572 463.915 389.544 463.401ZM374.637 455.947C372.129 454.693 369.637 453.447 367.183 452.22 366.155 451.706 364.902 452.124 364.388 453.152 363.874 454.181 364.291 455.433 365.32 455.947 367.774 457.174 370.266 458.42 372.773 459.674 373.802 460.188 375.054 459.771 375.568 458.742 376.082 457.714 375.665 456.461 374.637 455.947ZM359.729 448.494C357.164 447.211 354.67 445.964 352.276 444.767 351.247 444.253 349.995 444.67 349.481 445.699 348.967 446.727 349.384 447.979 350.413 448.494 352.807 449.691 355.301 450.938 357.866 452.22 358.894 452.735 360.147 452.317 360.661 451.289 361.175 450.26 360.758 449.008 359.729 448.494ZM344.822 441.04C342.11 439.684 339.606 438.432 337.369 437.313 336.34 436.799 335.088 437.217 334.574 438.245 334.059 439.273 334.477 440.526 335.505 441.04 337.743 442.159 340.247 443.411 342.959 444.767 343.987 445.281 345.24 444.864 345.754 443.835 346.268 442.807 345.851 441.554 344.822 441.04ZM329.037 433.148L329.37 432.912C330.307 432.246 330.528 430.945 329.863 430.007 329.197 429.069 327.896 428.848 326.958 429.514 325.153 430.795 323.829 431.735 323.829 431.735 323.829 431.735 325 435.541 325 435.541 325 435.541 324.111 435.343 324.111 435.343 324.111 435.343 325.761 436.168 328.052 437.313 329.08 437.828 330.333 437.41 330.847 436.382 331.361 435.353 330.944 434.101 329.915 433.587L329.037 433.148ZM336.166 428.089C338.221 426.63 340.513 425.004 342.961 423.266 343.899 422.601 344.12 421.299 343.455 420.361 342.789 419.424 341.488 419.203 340.55 419.868 338.102 421.606 335.81 423.232 333.754 424.691 332.816 425.356 332.595 426.658 333.261 427.596 333.926 428.533 335.228 428.754 336.166 428.089ZM349.757 418.443C351.978 416.867 354.259 415.248 356.553 413.62 357.491 412.955 357.712 411.653 357.046 410.715 356.381 409.778 355.079 409.557 354.142 410.222 351.848 411.85 349.567 413.469 347.346 415.045 346.408 415.711 346.187 417.012 346.853 417.95 347.518 418.888 348.82 419.109 349.757 418.443ZM363.349 408.797C365.665 407.154 367.947 405.535 370.145 403.974 371.083 403.309 371.304 402.007 370.638 401.07 369.973 400.132 368.671 399.911 367.734 400.576 365.535 402.137 363.253 403.756 360.938 405.399 360 406.065 359.779 407.366 360.444 408.304 361.11 409.242 362.411 409.463 363.349 408.797ZM376.941 399.152C379.468 397.358 381.768 395.726 383.737 394.329 384.674 393.663 384.896 392.362 384.23 391.424 383.565 390.486 382.263 390.265 381.325 390.931 379.357 392.328 377.057 393.96 374.529 395.754 373.592 396.419 373.371 397.721 374.036 398.658 374.702 399.596 376.003 399.817 376.941 399.152ZM387.473 388.757C387.518 388.845 387.569 388.93 387.628 389.012 388.293 389.95 389.595 390.171 390.533 389.506 390.685 389.398 390.786 389.326 390.786 389.326H390.785C391.162 389.06 391.45 388.67 391.585 388.203 391.842 387.312 391.479 386.357 390.694 385.862 390.694 385.862 388.158 384.264 383.911 381.586 382.938 380.973 381.651 381.265 381.037 382.237 380.424 383.21 380.716 384.497 381.689 385.111L387.473 388.757ZM376.861 377.142C374.69 375.773 372.325 374.282 369.812 372.698 368.839 372.084 367.552 372.376 366.939 373.349 366.326 374.322 366.617 375.609 367.59 376.222 370.103 377.806 372.468 379.297 374.639 380.666 375.612 381.28 376.9 380.988 377.513 380.015 378.126 379.042 377.834 377.755 376.861 377.142ZM362.763 368.253C360.478 366.813 358.119 365.326 355.713 363.809 354.741 363.196 353.453 363.488 352.84 364.461 352.227 365.433 352.519 366.721 353.491 367.334 355.897 368.851 358.256 370.338 360.541 371.778 361.513 372.391 362.801 372.099 363.414 371.127 364.027 370.154 363.735 368.867 362.763 368.253ZM348.664 359.365C346.326 357.891 343.968 356.405 341.615 354.921 340.642 354.308 339.355 354.6 338.741 355.572 338.128 356.545 338.42 357.832 339.393 358.446 341.746 359.929 344.104 361.416 346.442 362.89 347.415 363.503 348.702 363.211 349.315 362.238 349.929 361.266 349.637 359.978 348.664 359.365ZM334.565 350.477C332.179 348.973 329.821 347.486 327.516 346.033 326.543 345.419 325.256 345.711 324.643 346.684 324.029 347.657 324.321 348.944 325.294 349.557 327.599 351.011 329.957 352.497 332.343 354.001 333.316 354.615 334.603 354.323 335.217 353.35 335.83 352.377 335.538 351.09 334.565 350.477ZM320.467 341.588C318.004 340.036 315.642 338.547 313.417 337.144 312.445 336.531 311.157 336.823 310.544 337.796 309.931 338.768 310.223 340.056 311.195 340.669 313.42 342.071 315.781 343.56 318.245 345.113 319.217 345.726 320.505 345.435 321.118 344.462 321.731 343.489 321.439 342.202 320.467 341.588ZM306.368 332.7C303.576 330.94 301.185 329.433 299.319 328.256 298.346 327.643 297.058 327.935 296.445 328.907 295.832 329.88 296.124 331.167 297.096 331.781 298.963 332.958 301.354 334.465 304.146 336.225 305.118 336.838 306.406 336.546 307.019 335.573 307.632 334.601 307.341 333.313 306.368 332.7ZM297.453 327.339C299.149 326.27 301.589 324.734 304.505 322.898 305.478 322.286 305.77 320.998 305.158 320.025 304.545 319.052 303.258 318.76 302.285 319.373 299.369 321.208 296.929 322.744 295.233 323.813 294.26 324.425 293.967 325.713 294.58 326.686 295.193 327.659 296.48 327.951 297.453 327.339ZM311.557 318.458C313.814 317.037 316.189 315.542 318.609 314.018 319.582 313.406 319.874 312.118 319.262 311.145 318.649 310.172 317.362 309.88 316.389 310.492 313.969 312.016 311.594 313.511 309.337 314.932 308.364 315.545 308.071 316.832 308.684 317.805 309.296 318.778 310.584 319.071 311.557 318.458ZM325.661 309.578C328.061 308.067 330.435 306.572 332.712 305.138 333.685 304.525 333.978 303.238 333.365 302.265 332.753 301.292 331.465 300.999 330.492 301.612 328.215 303.046 325.841 304.541 323.44 306.052 322.467 306.665 322.175 307.952 322.787 308.925 323.4 309.898 324.687 310.191 325.661 309.578ZM339.764 300.698C342.516 298.965 344.93 297.445 346.816 296.258 347.789 295.645 348.082 294.358 347.469 293.385 346.857 292.412 345.569 292.119 344.596 292.732 342.71 293.919 340.296 295.439 337.544 297.172 336.571 297.785 336.279 299.072 336.891 300.045 337.504 301.018 338.791 301.311 339.764 300.698ZM351.749 288.341C351.551 286.368 351.27 283.551 350.919 280.049 350.805 278.905 349.783 278.069 348.639 278.183 347.495 278.298 346.659 279.319 346.773 280.464 347.124 283.966 347.405 286.783 347.603 288.756 347.717 289.9 348.739 290.736 349.883 290.621 351.027 290.507 351.863 289.485 351.749 288.341ZM350.09 271.757C349.833 269.181 349.555 266.406 349.261 263.465 349.147 262.321 348.125 261.485 346.981 261.599 345.837 261.714 345.001 262.735 345.115 263.88 345.409 266.821 345.687 269.596 345.944 272.171 346.059 273.316 347.08 274.152 348.225 274.037 349.369 273.923 350.205 272.901 350.09 271.757ZM348.432 255.173C348.164 252.499 347.887 249.728 347.603 246.881 347.488 245.737 346.466 244.901 345.322 245.015 344.178 245.13 343.342 246.152 343.457 247.296 343.741 250.143 344.018 252.913 344.286 255.588 344.4 256.732 345.422 257.568 346.566 257.453 347.71 257.339 348.546 256.317 348.432 255.173ZM346.773 238.589C346.502 235.87 346.225 233.102 345.944 230.297 345.83 229.153 344.808 228.317 343.664 228.431 342.52 228.546 341.684 229.567 341.798 230.712 342.079 233.516 342.356 236.285 342.627 239.004 342.742 240.148 343.764 240.984 344.908 240.869 346.052 240.755 346.888 239.733 346.773 238.589ZM345.115 222.005C344.84 219.257 344.563 216.489 344.286 213.713 344.171 212.569 343.15 211.733 342.006 211.847 340.861 211.962 340.025 212.984 340.14 214.128 340.418 216.904 340.694 219.672 340.969 222.42 341.083 223.564 342.105 224.4 343.249 224.285 344.393 224.171 345.229 223.149 345.115 222.005ZM343.457 205.421C343.179 202.649 342.903 199.881 342.627 197.129 342.513 195.985 341.491 195.149 340.347 195.264 339.203 195.378 338.367 196.4 338.481 197.544 338.757 200.295 339.033 203.064 339.311 205.836 339.425 206.98 340.447 207.816 341.591 207.702 342.735 207.587 343.571 206.565 343.457 205.421ZM341.798 188.837C341.518 186.038 341.241 183.269 340.969 180.545 340.855 179.401 339.833 178.565 338.689 178.68 337.545 178.794 336.709 179.816 336.823 180.96 337.095 183.684 337.372 186.452 337.652 189.252 337.767 190.396 338.788 191.232 339.933 191.117 341.077 191.003 341.913 189.981 341.798 188.837ZM340.14 172.253C339.856 169.414 339.579 166.645 339.311 163.961 339.196 162.817 338.174 161.981 337.03 162.096 335.886 162.21 335.05 163.232 335.165 164.376 335.433 167.059 335.71 169.829 335.994 172.668 336.108 173.812 337.13 174.648 338.274 174.534 339.418 174.419 340.254 173.397 340.14 172.253ZM338.481 155.669C338.19 152.75 337.912 149.977 337.652 147.377 337.538 146.233 336.516 145.397 335.372 145.512 334.228 145.626 333.392 146.648 333.506 147.792 333.766 150.391 334.044 153.165 334.335 156.084 334.45 157.228 335.472 158.064 336.616 157.95 337.76 157.835 338.596 156.813 338.481 155.669ZM336.823 139.085C336.496 135.813 336.216 133.016 335.994 130.793 335.879 129.649 334.858 128.813 333.714 128.928 332.569 129.042 331.733 130.064 331.848 131.208 332.07 133.431 332.35 136.228 332.677 139.5 332.791 140.644 333.813 141.48 334.957 141.366 336.101 141.251 336.937 140.229 336.823 139.085Z"></path><circle cx="433.333" cy="487.625" r="8.333" fill="var(--c-icon-bg, #FFFFFF)" fill-rule="evenodd"></circle><path fill="var(--c-icon-primary, #0694F9)" fill-rule="evenodd" d="M433.333 479.291C437.933 479.291 441.667 483.026 441.667 487.625 441.667 492.224 437.933 495.958 433.333 495.958 428.734 495.958 425 492.224 425 487.625 425 483.026 428.734 479.291 433.333 479.291ZM433.333 483.458C435.633 483.458 437.5 485.325 437.5 487.625 437.5 489.924 435.633 491.791 433.333 491.791 431.034 491.791 429.167 489.924 429.167 487.625 429.167 485.325 431.034 483.458 433.333 483.458Z"></path><circle cx="325" cy="433.458" r="8.333" fill="var(--c-icon-bg, #FFFFFF)" fill-rule="evenodd"></circle><path fill="var(--c-icon-primary, #0694F9)" fill-rule="evenodd" d="M325 425.125C329.599 425.125 333.333 428.859 333.333 433.458 333.333 438.057 329.599 441.791 325 441.791 320.401 441.791 316.667 438.057 316.667 433.458 316.667 428.859 320.401 425.125 325 425.125ZM325 429.291C327.3 429.291 329.167 431.158 329.167 433.458 329.167 435.758 327.3 437.625 325 437.625 322.7 437.625 320.833 435.758 320.833 433.458 320.833 431.158 322.7 429.291 325 429.291Z"></path><circle cx="391.667" cy="387.625" r="8.333" fill="var(--c-icon-bg, #FFFFFF)" fill-rule="evenodd"></circle><path fill="var(--c-icon-primary, #0694F9)" fill-rule="evenodd" d="M391.667 379.291C396.266 379.291 400 383.026 400 387.625 400 392.224 396.266 395.958 391.667 395.958 387.067 395.958 383.333 392.224 383.333 387.625 383.333 383.026 387.067 379.291 391.667 379.291ZM391.667 383.458C393.966 383.458 395.833 385.325 395.833 387.625 395.833 389.924 393.966 391.791 391.667 391.791 389.367 391.791 387.5 389.924 387.5 387.625 387.5 385.325 389.367 383.458 391.667 383.458Z"></path><circle cx="291.667" cy="329.291" r="8.333" fill="var(--c-icon-bg, #FFFFFF)" fill-rule="evenodd"></circle><path fill="var(--c-icon-primary, #0694F9)" fill-rule="evenodd" d="M291.667 320.958C296.266 320.958 300 324.692 300 329.291 300 333.891 296.266 337.625 291.667 337.625 287.067 337.625 283.333 333.891 283.333 329.291 283.333 324.692 287.067 320.958 291.667 320.958ZM291.667 325.125C293.966 325.125 295.833 326.992 295.833 329.291 295.833 331.591 293.966 333.458 291.667 333.458 289.367 333.458 287.5 331.591 287.5 329.291 287.5 326.992 289.367 325.125 291.667 325.125Z"></path><circle cx="350" cy="293.875" r="8.333" fill="var(--c-icon-bg, #FFFFFF)" fill-rule="evenodd"></circle><path fill="var(--c-icon-primary, #0694F9)" fill-rule="evenodd" d="M350 285.541C354.599 285.541 358.333 289.276 358.333 293.875 358.333 298.474 354.599 302.208 350 302.208 345.401 302.208 341.667 298.474 341.667 293.875 341.667 289.276 345.401 285.541 350 285.541ZM350 289.708C352.3 289.708 354.167 291.575 354.167 293.875 354.167 296.174 352.3 298.041 350 298.041 347.7 298.041 345.833 296.174 345.833 293.875 345.833 291.575 347.7 289.708 350 289.708Z"></path><circle cx="333.333" cy="129.291" r="8.333" fill="var(--c-icon-bg, #FFFFFF)" fill-rule="evenodd"></circle><path fill="var(--c-icon-primary, #0694F9)" fill-rule="evenodd" d="M333.333 120.958C337.933 120.958 341.667 124.692 341.667 129.291 341.667 133.891 337.933 137.625 333.333 137.625 328.734 137.625 325 133.891 325 129.291 325 124.692 328.734 120.958 333.333 120.958ZM333.333 125.125C335.633 125.125 337.5 126.992 337.5 129.291 337.5 131.591 335.633 133.458 333.333 133.458 331.034 133.458 329.167 131.591 329.167 129.291 329.167 126.992 331.034 125.125 333.333 125.125Z"></path><path fill="var(--c-icon-bg-d3, #E0E0E0)" fill-rule="evenodd" d="M491.954 471.089L458.464 504.579C458.464 504.579 531.661 577.776 557.421 603.536 562.303 608.418 570.217 608.418 575.099 603.536 579.982 598.654 586.029 592.607 590.912 587.724 595.793 582.842 595.793 574.928 590.912 570.046 565.151 544.286 491.954 471.089 491.954 471.089Z"></path><path fill="var(--c-icon-primary, #0694F9)" fill-rule="evenodd" d="M491.954 471.089L458.464 504.579 483.731 529.846 517.221 496.356 491.954 471.089Z"></path><path fill="var(--c-icon, #222222)" fill-rule="evenodd" d="M492.004 469.006C492.004 469.006 491.904 469.006 491.904 469.006 491.904 469.006 491.804 469.011 491.804 469.011 491.804 469.011 491.705 469.02 491.705 469.02 491.705 469.02 491.605 469.035 491.605 469.035 491.605 469.035 491.537 469.048 491.537 469.048L491.458 469.065C491.458 469.065 491.392 469.082 491.392 469.082L491.313 469.106C491.313 469.106 491.249 469.128 491.249 469.128L491.17 469.158C491.17 469.158 491.109 469.184 491.109 469.184L491.031 469.22C491.031 469.22 490.973 469.25 490.973 469.25L490.895 469.294C490.895 469.294 490.838 469.329 490.838 469.329L490.765 469.378C490.765 469.378 490.708 469.419 490.708 469.419L490.639 469.473C490.639 469.473 490.599 469.506 490.599 469.506 490.599 469.506 490.559 469.542 490.559 469.542 490.559 469.542 490.519 469.578 490.519 469.578 490.519 469.578 490.481 469.616 490.481 469.616L456.991 503.106C456.965 503.131 456.941 503.157 456.917 503.183 456.178 504.001 456.203 505.264 456.991 506.052 456.991 506.052 530.188 579.249 555.948 605.009 561.643 610.705 570.877 610.705 576.572 605.01 581.455 600.127 587.502 594.08 592.385 589.197 598.08 583.502 598.08 574.268 592.385 568.573L493.427 469.616C493.427 469.616 493.371 469.561 493.371 469.561L493.31 469.506C493.31 469.506 493.251 469.459 493.251 469.459L493.186 469.408C493.186 469.408 493.126 469.366 493.126 469.366L493.057 469.321C493.057 469.321 492.994 469.283 492.994 469.283L492.923 469.244C492.923 469.244 492.857 469.211 492.857 469.211L492.785 469.178C492.785 469.178 492.691 469.139 492.691 469.139 492.691 469.139 492.595 469.106 492.595 469.106 492.595 469.106 492.499 469.077 492.499 469.077 492.499 469.077 492.401 469.054 492.401 469.054 492.401 469.054 492.303 469.035 492.303 469.035 492.303 469.035 492.203 469.02 492.203 469.02 492.203 469.02 492.104 469.011 492.104 469.011 492.104 469.011 492.004 469.006 492.004 469.006ZM517.221 499.302L589.438 571.519C593.506 575.587 593.506 582.183 589.439 586.251 589.438 586.251 573.626 602.063 573.626 602.063 569.558 606.131 562.962 606.131 558.895 602.063L486.677 529.846 517.221 499.302ZM461.41 504.579C461.41 504.579 483.731 526.9 483.731 526.9L514.275 496.356 491.954 474.035 461.41 504.579Z"></path><path fill="var(--c-icon-bg-d3, #E0E0E0)" fill-rule="evenodd" d="M315.084 327.709C361.293 281.5 436.326 281.5 482.535 327.709 528.744 373.918 528.744 448.95 482.535 495.16 436.326 541.369 361.293 541.369 315.084 495.16 268.875 448.95 268.875 373.918 315.084 327.709ZM332.527 345.152C369.109 308.569 428.51 308.569 465.092 345.152 501.674 381.734 501.674 441.135 465.092 477.717 428.51 514.299 369.109 514.299 332.527 477.717 295.945 441.135 295.945 381.734 332.527 345.152Z"></path><path fill="#00A0E3" fill-opacity=".15" fill-rule="evenodd" d="M332.527 345.152C369.109 308.569 428.51 308.569 465.092 345.152 501.674 381.734 501.674 441.135 465.092 477.717 428.51 514.299 369.109 514.299 332.527 477.717 295.945 441.135 295.945 381.734 332.527 345.152Z"></path><path fill="var(--c-icon, #222222)" fill-rule="evenodd" d="M313.611 326.236C266.589 373.258 266.589 449.611 313.611 496.633 360.633 543.655 436.986 543.655 484.008 496.633 531.03 449.611 531.03 373.258 484.008 326.236 436.986 279.214 360.634 279.214 313.611 326.236V326.236ZM316.558 329.182C361.954 283.786 435.666 283.786 481.062 329.182 526.458 374.578 526.458 448.29 481.062 493.687 435.666 539.083 361.954 539.083 316.557 493.687 271.161 448.29 271.161 374.579 316.557 329.182H316.558ZM398.81 315.632L398.235 315.634 397.66 315.639 397.085 315.648 396.51 315.66 395.935 315.675 395.361 315.694 394.786 315.716 394.212 315.742 393.638 315.771 393.063 315.803 392.489 315.839 391.916 315.879 391.342 315.921 390.769 315.968 390.195 316.017 389.623 316.07 389.05 316.127 388.478 316.187 387.906 316.25 387.334 316.317 386.762 316.387 386.191 316.461 385.621 316.538 385.05 316.618 384.481 316.702 383.911 316.789 383.342 316.88 382.773 316.974 382.205 317.072 381.638 317.173 381.071 317.277 380.504 317.385 379.938 317.496 379.372 317.611 378.807 317.729 378.243 317.851 377.679 317.976 377.116 318.104 376.553 318.236 375.992 318.371 375.43 318.51 374.87 318.652 374.31 318.797 373.751 318.946 373.193 319.099 372.635 319.254 372.078 319.414 371.522 319.576 370.967 319.742 370.412 319.912 369.859 320.085 369.306 320.261 368.754 320.441 368.203 320.624 367.653 320.81 367.104 321 366.555 321.194 366.008 321.391 365.462 321.591 364.916 321.795 364.372 322.002 363.829 322.212 363.286 322.426 362.745 322.644 362.205 322.865 361.666 323.089 361.128 323.317 360.591 323.548 360.055 323.782 359.52 324.02 358.987 324.261 358.455 324.506 357.924 324.754 357.394 325.006 356.865 325.261 356.338 325.52 355.812 325.782 355.287 326.047 354.764 326.316 354.241 326.588 353.721 326.863 353.201 327.142 352.683 327.425 352.166 327.711 351.651 328 351.137 328.293 350.624 328.589 350.113 328.888 349.604 329.191 349.096 329.498 348.589 329.808 348.084 330.121 347.581 330.438 347.079 330.758 346.578 331.081 346.079 331.408 345.582 331.739 345.087 332.072 344.593 332.41 344.1 332.75 343.61 333.094 343.121 333.442 342.633 333.793 342.148 334.147 341.664 334.505 341.182 334.866 340.702 335.231 340.223 335.599 339.747 335.97 339.272 336.345 338.799 336.724 338.327 337.105 337.858 337.49 337.391 337.879 336.925 338.271 336.462 338.666 336 339.065 335.54 339.468 335.082 339.873 334.627 340.282 334.173 340.695 333.721 341.111 333.271 341.53 332.824 341.953 332.378 342.379 331.935 342.809 331.493 343.242 331.054 343.679 330.617 344.118 330.184 344.559 329.754 345.003 329.328 345.449 328.905 345.896 328.486 346.346 328.07 346.798 327.657 347.252 327.248 347.707 326.843 348.165 326.44 348.625 326.042 349.086 325.646 349.55 325.254 350.016 324.866 350.483 324.48 350.952 324.099 351.424 323.72 351.897 323.345 352.371 322.974 352.848 322.606 353.327 322.241 353.807 321.88 354.289 321.522 354.773 321.168 355.258 320.817 355.746 320.47 356.235 320.125 356.725 319.785 357.218 319.448 357.711 319.114 358.207 318.783 358.704 318.456 359.203 318.133 359.704 317.813 360.206 317.496 360.709 317.183 361.214 316.873 361.721 316.567 362.229 316.264 362.738 315.964 363.249 315.668 363.762 315.375 364.276 315.086 364.791 314.8 365.308 314.518 365.826 314.239 366.345 313.963 366.866 313.691 367.388 313.422 367.912 313.157 368.437 312.895 368.963 312.636 369.49 312.381 370.019 312.13 370.549 311.881 371.08 311.637 371.612 311.395 372.145 311.157 372.68 310.923 373.216 310.692 373.753 310.464 374.291 310.24 374.83 310.019 375.37 309.802 375.911 309.588 376.453 309.377 376.997 309.17 377.541 308.966 378.087 308.766 378.633 308.569 379.18 308.376 379.728 308.186 380.278 307.999 380.828 307.816 381.379 307.636 381.931 307.46 382.483 307.287 383.037 307.117 383.592 306.951 384.147 306.789 384.703 306.63 385.26 306.474 385.817 306.321 386.376 306.172 386.935 306.027 387.495 305.885 388.055 305.746 388.616 305.611 389.178 305.479 389.741 305.351 390.304 305.226 390.868 305.104 391.432 304.986 391.997 304.871 392.563 304.76 393.129 304.652 393.695 304.548 394.263 304.447 394.83 304.349 395.398 304.255 395.967 304.164 396.536 304.077 397.105 303.993 397.675 303.913 398.246 303.836 398.816 303.762 399.387 303.692 399.959 303.625 400.53 303.562 401.102 303.502 401.675 303.446 402.247 303.392 402.82 303.343 403.394 303.297 403.967 303.254 404.54 303.214 405.114 303.178 405.688 303.146 406.262 303.117 406.837 303.091 407.411 303.069 407.986 303.05 408.56 303.035 409.135 303.023 409.71 303.014 410.285 303.009 410.86 303.007 411.434 303.009 412.009 303.014 412.584 303.023 413.159 303.035 413.734 303.05 414.309 303.069 414.883 303.091 415.458 303.117 416.032 303.146 416.607 303.179 417.181 303.214 417.755 303.254 418.328 303.297 418.902 303.343 419.475 303.392 420.049 303.446 420.621 303.502 421.194 303.562 421.766 303.625 422.338 303.692 422.91 303.762 423.482 303.836 424.053 303.913 424.623 303.993 425.194 304.077 425.763 304.165 426.333 304.255 426.902 304.349 427.471 304.447 428.039 304.548 428.606 304.652 429.173 304.76 429.74 304.872 430.306 304.986 430.872 305.104 431.437 305.226 432.001 305.351 432.565 305.479 433.128 305.611 433.691 305.746 434.252 305.885 434.814 306.027 435.374 306.172 435.934 306.321 436.493 306.474 437.051 306.63 437.609 306.789 438.166 306.951 438.722 307.117 439.277 307.287 439.832 307.46 440.385 307.636 440.938 307.816 441.49 307.999 442.041 308.186 442.591 308.376 443.14 308.569 443.689 308.766 444.236 308.966 444.782 309.17 445.328 309.377 445.872 309.588 446.415 309.802 446.958 310.019 447.499 310.24 448.039 310.464 448.578 310.692 449.116 310.923 449.653 311.157 450.189 311.395 450.724 311.637 451.257 311.881 451.789 312.13 452.32 312.381 452.85 312.636 453.379 312.895 453.906 313.157 454.432 313.422 454.957 313.691 455.48 313.963 456.003 314.239 456.523 314.518 457.043 314.8 457.561 315.086 458.078 315.375 458.593 315.668 459.107 315.964 459.62 316.264 460.131 316.567 460.64 316.873 461.148 317.183 461.655 317.496 462.16 317.813 462.663 318.133 463.165 318.457 463.666 318.784 464.165 319.114 464.662 319.448 465.157 319.785 465.651 320.126 466.144 320.47 466.634 320.817 467.123 321.168 467.611 321.522 468.096 321.88 468.58 322.241 469.062 322.606 469.542 322.974 470.021 323.346 470.497 323.72 470.972 324.099 471.445 324.48 471.916 324.866 472.386 325.254 472.853 325.646 473.319 326.042 473.782 326.44 474.244 326.843 474.704 327.248 475.162 327.658 475.617C327.658 475.617 328.07 476.071 328.07 476.071 328.07 476.071 328.486 476.523 328.486 476.523 328.486 476.523 328.906 476.973 328.906 476.973 328.906 476.973 329.328 477.42 329.328 477.42 329.328 477.42 329.755 477.866 329.755 477.866 329.755 477.866 330.184 478.309 330.184 478.309 330.184 478.309 330.617 478.751 330.617 478.751 330.763 478.898 330.908 479.044 331.054 479.19 368.449 516.585 429.17 516.585 466.565 479.19 472.653 473.102 477.75 466.396 481.859 459.266 502.97 422.642 497.873 374.986 466.565 343.679L466.126 343.242C466.126 343.242 465.685 342.809 465.685 342.809 465.685 342.809 465.241 342.379 465.241 342.379 465.241 342.379 464.795 341.953 464.795 341.953 464.795 341.953 464.348 341.53 464.348 341.53 464.348 341.53 463.898 341.111 463.898 341.111 463.898 341.111 463.446 340.695 463.446 340.695 463.446 340.695 462.993 340.282 462.993 340.282 462.993 340.282 462.537 339.873 462.537 339.873L462.079 339.468 461.619 339.065 461.158 338.666 460.694 338.271 460.228 337.879 459.761 337.49 459.292 337.105 458.82 336.724 458.347 336.345 457.873 335.97 457.396 335.599 456.917 335.231 456.437 334.866 455.955 334.505 455.471 334.147 454.986 333.793 454.498 333.442 454.009 333.094 453.519 332.75 453.027 332.41 452.533 332.072 452.037 331.739 451.54 331.408 451.041 331.081 450.541 330.758 450.039 330.438 449.535 330.121 449.03 329.808 448.523 329.498 448.015 329.191 447.506 328.888 446.995 328.589 446.482 328.293 445.968 328 445.453 327.711 444.936 327.425 444.418 327.142 443.899 326.863 443.378 326.588 442.856 326.316 442.332 326.047 441.807 325.782 441.281 325.52 440.754 325.261 440.225 325.006 439.695 324.754 439.164 324.506 438.632 324.261 438.099 324.02 437.564 323.782 437.028 323.548 436.491 323.317 435.953 323.089 435.414 322.865 434.874 322.644 434.333 322.426 433.791 322.212 433.247 322.002 432.703 321.795 432.158 321.591 431.611 321.391 431.064 321.194 430.516 321 429.966 320.81 429.416 320.624 428.865 320.441 428.313 320.261 427.761 320.085 427.207 319.912 426.652 319.742 426.097 319.576 425.541 319.414 424.984 319.254 424.427 319.099 423.868 318.946 423.309 318.797 422.749 318.652 422.189 318.51 421.628 318.371 421.066 318.236 420.503 318.104 419.94 317.976 419.376 317.851 418.812 317.729 418.247 317.611 417.681 317.496 417.115 317.385 416.549 317.277 415.981 317.173 415.414 317.072 414.846 316.974 414.277 316.88 413.708 316.789 413.139 316.702 412.569 316.618 411.998 316.538 411.428 316.461 410.857 316.387 410.285 316.317 409.714 316.25 409.142 316.187 408.569 316.127 407.997 316.07 407.424 316.017 406.851 315.968 406.277 315.921 405.704 315.879 405.13 315.839 404.556 315.803 403.982 315.771 403.407 315.742 402.833 315.716 402.258 315.694 401.684 315.675 401.109 315.66 400.534 315.648 399.959 315.639 399.384 315.634 398.81 315.632ZM463.199 346.207L463.619 346.625C488.049 371.055 495.794 405.894 486.851 436.926L486.829 437.004C486.663 437.575 486.491 438.149 486.313 438.722L486.187 439.126C486.131 439.303 486.075 439.479 486.018 439.655L485.847 440.183C481.509 453.368 474.099 465.763 463.619 476.244 428.29 511.573 371.195 512.008 335.33 477.547L335.267 477.487 335.107 477.331C334.732 476.97 334.365 476.609 334 476.244L333.583 475.824 333.168 475.401 332.757 474.977 332.35 474.551 331.945 474.123 331.544 473.693 331.146 473.26 330.752 472.826 330.36 472.39 329.972 471.953 329.587 471.513 329.206 471.071 328.828 470.628 328.453 470.183 328.081 469.735 327.713 469.286 327.347 468.836 326.986 468.383 326.627 467.929 326.272 467.473 325.92 467.015 325.571 466.556 325.225 466.095 324.883 465.632 324.544 465.168 324.209 464.702 323.876 464.234 323.547 463.765 323.221 463.294 322.899 462.821 322.579 462.347 322.263 461.872 321.951 461.395 321.641 460.916 321.335 460.436 321.032 459.954 320.732 459.471 320.436 458.986 320.143 458.5 319.853 458.013 319.567 457.524 319.283 457.034 319.003 456.542 318.727 456.05 318.453 455.555 318.183 455.06 317.916 454.563 317.652 454.065 317.392 453.565 317.135 453.064 316.881 452.562 316.631 452.059 316.383 451.555 316.14 451.049 315.899 450.542 315.661 450.034 315.427 449.525 315.196 449.015 314.969 448.504 314.744 447.991 314.523 447.478 314.306 446.963 314.091 446.447 313.88 445.931 313.672 445.413 313.467 444.894 313.266 444.375 313.068 443.854 312.873 443.332 312.681 442.81 312.493 442.286 312.308 441.762 312.126 441.236 311.948 440.71 311.773 440.183 311.601 439.655 311.432 439.126 311.267 438.597 311.105 438.067 310.946 437.535 310.79 437.004 310.638 436.471 310.489 435.938 310.343 435.403 310.201 434.869 310.062 434.333 309.926 433.797 309.793 433.26 309.664 432.723 309.538 432.185 309.415 431.646 309.295 431.107 309.179 430.567 309.066 430.026 308.956 429.486 308.85 428.944 308.747 428.402 308.647 427.86 308.55 427.317 308.457 426.773 308.367 426.229 308.28 425.685 308.197 425.14 308.116 424.595 308.039 424.05 307.966 423.504 307.895 422.958 307.828 422.411 307.764 421.864 307.704 421.317 307.646 420.77 307.592 420.222 307.542 419.674 307.494 419.126 307.45 418.577 307.409 418.029 307.371 417.48 307.337 416.931 307.306 416.382 307.278 415.832 307.253 415.283 307.232 414.733 307.214 414.184 307.199 413.634 307.188 413.084 307.18 412.534 307.175 411.984 307.173 411.434 307.175 410.885 307.18 410.335 307.188 409.785 307.199 409.235 307.214 408.685 307.232 408.136 307.253 407.586 307.278 407.037 307.306 406.487 307.337 405.938 307.371 405.389 307.409 404.84 307.45 404.292 307.494 403.743 307.542 403.195 307.592 402.647 307.646 402.099 307.704 401.552 307.764 401.005 307.828 400.458 307.895 399.911 307.966 399.365 308.039 398.819 308.116 398.274 308.197 397.728 308.28 397.184 308.367 396.639 308.457 396.096 308.55 395.552 308.647 395.009 308.747 394.467 308.85 393.925 308.956 393.383 309.066 392.842 309.179 392.302 309.295 391.762 309.415 391.223 309.538 390.684 309.664 390.146 309.793 389.609 309.926 389.072 310.062 388.536 310.201 388 310.343 387.465 310.489 386.931 310.638 386.398 310.79 385.865 310.946 385.333 311.105 384.802 311.267 384.272 311.432 383.742 311.601 383.214 311.773 382.686 311.948 382.159 312.126 381.632 312.308 381.107 312.493 380.583 312.681 380.059 312.873 379.537 313.068 379.015 313.266 378.494 313.467 377.975 313.672 377.456 313.88 376.938 314.091 376.421 314.306 375.906 314.523 375.391 314.744 374.878 314.969 374.365 315.196 373.854 315.427 373.343 315.661 372.834 315.899 372.326 316.139 371.82 316.383 371.314 316.631 370.81 316.881 370.306 317.135 369.804 317.392 369.304 317.652 368.804 317.916 368.306 318.183 367.809 318.453 367.314 318.727 366.819 319.003 366.326 319.283 365.835 319.567 365.345 319.853 364.856 320.143 364.368 320.436 363.882 320.732 363.398 321.032 362.915 321.335 362.433 321.641 361.953 321.951 361.474 322.263 360.997 322.579 360.522 322.899 360.048 323.221 359.575 323.547 359.104 323.876 358.635 324.209 358.167 324.544 357.701 324.883 357.237 325.225 356.774 325.571 356.313 325.92 355.853 326.272 355.396 326.627 354.94 326.986 354.485 327.347 354.033 327.713 353.582 328.081 353.133 328.453 352.686 328.828 352.241 329.206 351.798 329.587 351.356 329.972 350.916 330.36 350.478 330.752 350.042 331.146 349.608 331.544 349.176 331.945 348.746 332.35 348.318 332.757 347.892 333.168 347.467 333.583 347.045 334 346.625C334 346.625 334.42 346.207 334.42 346.207L334.843 345.793 335.267 345.382 335.693 344.974 336.121 344.57 336.551 344.169 336.984 343.771 337.418 343.376 337.854 342.985 338.291 342.597 338.731 342.212 339.173 341.831 339.616 341.452 340.061 341.077 340.509 340.706 340.958 340.337 341.408 339.972 341.861 339.61 342.315 339.252 342.771 338.896 343.229 338.544 343.688 338.196 344.149 337.85 344.612 337.508 345.076 337.169 345.542 336.833 346.01 336.501 346.479 336.172 346.95 335.846 347.423 335.523 347.897 335.204 348.372 334.888 348.849 334.575 349.328 334.266 349.808 333.96 350.29 333.657 350.773 333.357 351.258 333.061 351.744 332.768 352.231 332.478 352.72 332.191 353.21 331.908 353.702 331.628 354.194 331.351 354.689 331.078 355.184 330.808 355.681 330.541 356.179 330.277 356.679 330.017 357.18 329.76 357.682 329.506 358.185 329.255 358.689 329.008 359.195 328.764 359.702 328.524 360.21 328.286 360.719 328.052 361.229 327.821 361.74 327.594 362.253 327.369 362.766 327.148 363.281 326.93 363.797 326.716 364.313 326.505 364.831 326.297 365.35 326.092 365.869 325.891 366.39 325.693 366.912 325.498 367.434 325.306 367.958 325.118 368.482 324.933 369.008 324.751 369.534 324.573 370.061 324.397 370.589 324.225 371.118 324.057 371.647 323.891 372.177 323.729 372.709 323.57 373.24 323.415 373.773 323.263 374.306 323.114 374.841 322.968 375.375 322.825 375.911 322.686 376.447 322.55 376.984 322.418 377.521 322.288 378.059 322.162 378.598 322.04 379.137 321.92 379.677 321.804 380.218 321.691 380.759 321.581 381.3 321.475 381.842 321.371 382.384 321.272 382.927 321.175 383.471 321.082 384.015 320.992 384.559 320.905 385.104 320.821 385.649 320.741 386.194 320.664 386.74 320.59 387.286 320.52 387.833 320.453 388.38 320.389 388.927 320.328 389.474 320.271 390.022 320.217 390.57 320.166 391.118 320.119 391.667 320.075 392.215 320.034 392.764 319.996 393.313 319.962 393.862 319.931 394.412 319.903 394.961 319.878 395.511 319.857 396.06 319.839 396.61 319.824 397.16 319.813 397.71 319.805 398.26 319.8 398.81 319.798 399.36 319.8 399.909 319.805 400.459 319.813 401.009 319.824 401.559 319.839 402.108 319.857 402.658 319.878 403.207 319.903 403.757 319.931 404.306 319.962 404.855 319.996 405.404 320.034 405.952 320.075 406.501 320.119 407.049 320.166 407.597 320.217 408.145 320.271 408.692 320.328 409.239 320.389 409.786 320.453 410.333 320.52 410.879 320.59 411.425 320.664 411.97 320.741 412.516 320.821 413.06 320.905 413.605 320.992 414.148 321.082 414.692 321.175 415.235 321.272 415.777 321.372 416.319 321.475 416.861 321.581 417.402 321.691 417.942 321.804 418.482 321.92 419.021 322.04 419.56 322.162 420.098 322.288 420.635 322.418 421.172 322.55 421.708 322.686 422.244 322.826 422.779 322.968 423.313 323.114 423.846 323.263 424.379 323.415 424.911 323.571 425.442 323.729 425.972 323.891 426.502 324.057 427.03 324.225 427.558 324.397 428.085 324.573 428.612 324.751 429.137 324.933 429.661 325.118 430.185 325.306 430.707 325.498 431.229 325.693 431.75 325.891 432.269 326.092 432.788 326.297 433.306 326.505 433.823 326.716 434.338 326.93 434.853 327.148 435.366 327.369 435.879 327.594 436.39 327.821 436.901 328.052 437.41 328.286 437.918 328.524 438.424 328.764 438.93 329.008 439.434 329.256 439.938 329.506 440.44 329.76 440.94 330.017 441.44 330.277 441.938 330.541 442.435 330.808 442.93 331.078 443.425 331.351 443.918 331.628 444.409 331.908 444.899 332.191 445.388 332.478 445.876 332.768 446.362 333.061 446.846 333.357 447.329 333.657 447.811 333.96 448.291 334.266 448.77 334.575 449.247 334.888 449.722 335.204 450.196 335.523 450.669 335.846 451.14 336.172 451.609 336.501 452.077 336.833 452.543 337.169 453.007 337.508 453.47 337.85 453.931 338.196 454.391 338.544 454.848 338.896 455.304 339.252 455.759 339.61 456.211 339.972 456.662 340.337 457.111 340.706 457.558 341.077 458.003 341.452 458.446 341.831 458.888 342.212 459.328 342.597 459.766 342.985 460.202 343.376 460.636 343.771 461.068 344.169 461.498 344.57 461.926 344.974 462.352 345.382 462.777 345.793 463.199 346.207Z"></path></svg>

