<!-- Icona SVG step 03 -->

<svg viewBox="0 0 667 667" xmlns="http://www.w3.org/2000/svg" fill="var(--c-text)" role="img" aria-hidden="true" aria-label="Seleziona la tua bicicletta" class="img-hMnTm1"><path fill="var(--c-icon-bg-d2, #EEEEEE)" fill-rule="evenodd" d="M350.001 83.744C350.001 78.185 345.488 73.671 339.928 73.671 339.928 73.671 132.612 73.671 132.612 73.671 127.053 73.671 122.539 78.185 122.539 83.744V206.574C122.539 212.134 127.053 216.647 132.612 216.647 132.612 216.647 339.928 216.647 339.928 216.647 345.488 216.647 350.001 212.134 350.001 206.574 350.001 206.574 350.001 83.744 350.001 83.744Z"></path><path fill="var(--c-icon, #222222)" fill-rule="evenodd" d="M352.085 83.744C352.085 77.035 346.637 71.588 339.928 71.588 339.928 71.588 132.612 71.588 132.612 71.588 125.903 71.588 120.456 77.035 120.456 83.744V206.574C120.456 213.283 125.903 218.731 132.612 218.731H339.928C346.637 218.731 352.085 213.283 352.085 206.574 352.085 206.574 352.085 83.744 352.085 83.744ZM347.918 83.744C347.918 83.744 347.918 206.574 347.918 206.574 347.918 210.984 344.338 214.564 339.928 214.564 339.928 214.564 132.612 214.564 132.612 214.564 128.203 214.564 124.623 210.984 124.623 206.574V83.744C124.623 79.335 128.203 75.754 132.612 75.754 132.612 75.754 339.928 75.754 339.928 75.754 344.338 75.754 347.918 79.335 347.918 83.744Z"></path><path fill="var(--c-icon, #222222)" d="M215.868 176.68C215.535 176.692 215.204 176.535 215.007 176.237 214.706 175.781 214.832 175.168 215.287 174.867L229.736 165.322C230.192 165.021 230.805 165.146 231.106 165.602 231.407 166.058 231.282 166.671 230.826 166.972L216.377 176.516C216.22 176.621 216.043 176.674 215.868 176.68Z"></path><path fill="var(--c-icon, #222222)" d="M220.587 176.515L211.146 176.845C210.601 176.864 210.143 176.436 210.124 175.891 210.105 175.345 210.532 174.887 211.077 174.868L220.518 174.539C221.064 174.52 221.522 174.947 221.541 175.492 221.56 176.038 221.133 176.496 220.587 176.515Z"></path><path fill="var(--c-icon-bg-d4, #BDBDBD)" d="M286.08 183.241C271.469 183.751 259.212 172.321 258.702 157.712 258.192 143.102 269.622 130.845 284.233 130.335 298.842 129.824 311.099 141.254 311.609 155.864 312.12 170.474 300.69 182.73 286.08 183.241ZM284.085 126.104C267.138 126.696 253.88 140.913 254.472 157.859 255.064 174.806 269.281 188.064 286.228 187.472 303.173 186.88 316.431 172.663 315.84 155.716 315.248 138.77 301.03 125.512 284.085 126.104Z"></path><path fill="var(--c-icon, #222222)" fill-rule="evenodd" d="M284.057 125.297C266.664 125.904 253.057 140.495 253.665 157.888 254.272 175.28 268.864 188.887 286.256 188.279 303.648 187.672 317.254 173.08 316.647 155.688 316.04 138.296 301.448 124.689 284.057 125.297ZM284.113 126.912C300.613 126.335 314.456 139.244 315.032 155.745 315.608 172.245 302.699 186.088 286.2 186.664 269.699 187.241 255.856 174.331 255.28 157.831 254.703 141.331 267.613 127.488 284.113 126.912ZM286.108 184.048C301.164 183.522 312.943 170.892 312.417 155.836 311.891 140.78 299.26 129.001 284.204 129.527 269.148 130.053 257.369 142.684 257.895 157.74 258.421 172.796 271.052 184.574 286.108 184.048ZM286.052 182.433C271.887 182.928 260.004 171.847 259.51 157.684 259.015 143.52 270.096 131.637 284.261 131.142 298.424 130.647 310.307 141.728 310.802 155.892 311.297 170.056 300.216 181.939 286.052 182.433Z"></path><path fill="var(--c-icon-bg-d4, #BDBDBD)" d="M190.782 186.569C176.172 187.079 163.915 175.649 163.405 161.04 162.894 146.43 174.324 134.173 188.934 133.663 203.544 133.152 215.801 144.582 216.311 159.192 216.821 173.802 205.391 186.058 190.782 186.569ZM188.786 129.432C182.407 129.655 176.55 131.809 171.758 135.312 163.821 141.115 158.805 150.621 159.174 161.187 159.766 178.134 173.983 191.392 190.929 190.8 207.876 190.208 221.133 175.991 220.542 159.044 220.246 150.581 216.552 143.038 210.817 137.68 205.068 132.31 197.269 129.136 188.786 129.432Z"></path><path fill="var(--c-icon, #222222)" fill-rule="evenodd" d="M188.758 128.624C182.21 128.853 176.199 131.064 171.281 134.66 163.135 140.615 157.988 150.371 158.367 161.216 158.974 178.608 173.565 192.215 190.957 191.607 208.35 191 221.956 176.408 221.349 159.016 221.046 150.33 217.254 142.588 211.368 137.089 205.468 131.578 197.464 128.32 188.758 128.624ZM188.814 130.239C197.074 129.951 204.668 133.042 210.265 138.27 215.849 143.487 219.446 150.832 219.734 159.073 220.31 175.573 207.401 189.416 190.901 189.992 174.401 190.569 160.558 177.659 159.981 161.159 159.622 150.87 164.506 141.615 172.235 135.964 176.9 132.553 182.603 130.456 188.814 130.239ZM190.81 187.376C205.865 186.85 217.644 174.22 217.119 159.164 216.593 144.108 203.962 132.329 188.906 132.855 173.85 133.381 162.071 146.012 162.597 161.068 163.123 176.123 175.754 187.902 190.81 187.376ZM190.753 185.761C176.59 186.256 164.707 175.175 164.212 161.011 163.717 146.848 174.798 134.965 188.962 134.47 203.126 133.975 215.009 145.056 215.504 159.22 215.998 173.384 204.917 185.266 190.753 185.761Z"></path><path fill="var(--c-icon-primary, #0694F9)" d="M264.436 113.797L261.472 107.125C261.152 106.403 261.452 105.557 262.156 105.2L272.718 99.838C273.448 99.468 274.341 99.759 274.711 100.49 275.082 101.22 274.79 102.113 274.06 102.484L264.754 107.208 268.025 114.571C268.03 114.581 268.034 114.591 268.039 114.6L269.747 118.447 269.755 118.464 286.511 156.186C286.844 156.934 286.507 157.811 285.759 158.143 285.579 158.223 285.393 158.264 285.208 158.271 284.622 158.291 284.053 157.96 283.8 157.39L268.021 121.867 231.466 167.059C231.193 167.396 230.79 167.593 230.365 167.608 230.275 167.611 230.185 167.607 230.095 167.593L189.64 161.583C189.162 161.512 188.748 161.212 188.532 160.78 188.315 160.348 188.323 159.838 188.552 159.412L211.426 116.941 207.859 106.808 210.658 105.822 214.084 115.555 264.436 113.797ZM192.166 158.959L228.097 164.297 212.758 120.724 192.166 158.959ZM266.452 118.334L265.734 116.72 215.116 118.487 230.83 163.128 266.669 118.822 266.452 118.334Z"></path><path fill="var(--c-icon, #222222)" d="M195.334 104.636L195.333 104.594C195.311 103.959 195.808 103.427 196.443 103.404L216.71 102.697C218.019 102.651 219.308 103.023 220.391 103.758 220.883 104.092 220.662 104.861 220.067 104.882L210.108 107.94C209.962 108.011 209.804 108.051 209.642 108.056L203.027 108.287C202.282 108.313 201.541 108.166 200.862 107.857L196.007 105.643C195.61 105.462 195.35 105.072 195.334 104.636Z"></path><path fill="var(--c-icon-bg-d4, #BDBDBD)" d="M288.828 156.66C288.898 158.687 287.312 160.388 285.285 160.459 283.257 160.53 281.555 158.944 281.484 156.916 281.413 154.888 283.001 153.187 285.028 153.116 287.056 153.046 288.757 154.632 288.828 156.66Z"></path><path fill="var(--c-icon-bg-d4, #BDBDBD)" d="M193.529 159.988C193.6 162.015 192.014 163.716 189.986 163.787 187.958 163.858 186.257 162.272 186.186 160.244 186.116 158.216 187.702 156.515 189.73 156.444 191.757 156.374 193.458 157.96 193.529 159.988Z"></path><path fill="var(--c-icon-primary, #0694F9)" d="M190.946 160.078C190.967 160.679 190.497 161.183 189.896 161.204 189.295 161.225 188.791 160.755 188.77 160.154 188.749 159.553 189.219 159.049 189.82 159.028 190.421 159.007 190.925 159.477 190.946 160.078Z"></path><path fill="var(--c-icon-primary, #0694F9)" d="M286.244 156.75C286.265 157.351 285.795 157.855 285.194 157.876 284.593 157.897 284.089 157.427 284.068 156.826 284.047 156.225 284.517 155.721 285.118 155.7 285.719 155.679 286.223 156.149 286.244 156.75Z"></path><path fill="var(--c-icon, #222222)" d="M230.51 171.779C227.388 171.888 224.769 169.445 224.66 166.323 224.551 163.201 226.993 160.582 230.116 160.473 233.238 160.364 235.857 162.806 235.966 165.929 236.075 169.051 233.632 171.67 230.51 171.779ZM229.997 157.077C224.999 157.251 221.089 161.444 221.264 166.442 221.438 171.44 225.631 175.349 230.629 175.175 235.627 175 239.537 170.808 239.362 165.81 239.188 160.812 234.995 156.902 229.997 157.077Z"></path><path fill="var(--c-icon-primary, #0694F9)" d="M230.382 168.097C229.293 168.135 228.38 167.283 228.342 166.195 228.304 165.106 229.155 164.193 230.244 164.155 231.333 164.117 232.246 164.969 232.284 166.057 232.322 167.146 231.47 168.059 230.382 168.097Z"></path><path fill="var(--c-icon, #222222)" d="M230.316 167.135C229.984 167.147 229.653 166.99 229.456 166.692 229.155 166.236 229.28 165.623 229.736 165.322L244.249 155.735C244.704 155.434 245.318 155.559 245.619 156.015 245.92 156.471 245.794 157.084 245.339 157.385L230.826 166.972C230.669 167.076 230.492 167.129 230.316 167.135Z"></path><path fill="var(--c-icon, #222222)" d="M249.549 157.384L240.108 157.713C239.562 157.732 239.104 157.305 239.085 156.759 239.066 156.214 239.493 155.756 240.039 155.737L249.48 155.407C250.025 155.388 250.483 155.815 250.502 156.361 250.521 156.907 250.094 157.365 249.549 157.384Z"></path><path fill="var(--c-icon, #222222)" d="M275.857 101.075C275.905 102.438 274.838 103.582 273.475 103.629 272.112 103.677 270.968 102.61 270.921 101.247 270.873 99.884 271.939 98.741 273.303 98.693 274.666 98.646 275.81 99.712 275.857 101.075Z"></path><path fill="var(--c-icon-bg-d2, #EEEEEE)" fill-rule="evenodd" d="M416.668 244.161C416.668 238.601 412.154 234.088 406.595 234.088 406.595 234.088 199.279 234.088 199.279 234.088 193.72 234.088 189.206 238.601 189.206 244.161V366.991C189.206 372.55 193.72 377.064 199.279 377.064 199.279 377.064 406.595 377.064 406.595 377.064 412.154 377.064 416.668 372.55 416.668 366.991 416.668 366.991 416.668 244.161 416.668 244.161Z"></path><path fill="var(--c-icon, #222222)" fill-rule="evenodd" d="M418.751 244.161C418.751 237.452 413.304 232.004 406.595 232.004 406.595 232.004 199.279 232.004 199.279 232.004 192.57 232.004 187.123 237.452 187.123 244.161V366.991C187.123 373.7 192.57 379.147 199.279 379.147 199.279 379.147 406.595 379.147 406.595 379.147 413.304 379.147 418.751 373.7 418.751 366.991 418.751 366.991 418.751 244.161 418.751 244.161ZM414.585 244.161C414.585 244.161 414.585 366.991 414.585 366.991 414.585 371.4 411.004 374.981 406.595 374.981 406.595 374.981 199.279 374.981 199.279 374.981 194.869 374.981 191.289 371.4 191.289 366.991 191.289 366.991 191.289 244.161 191.289 244.161 191.289 239.751 194.869 236.171 199.279 236.171 199.279 236.171 406.595 236.171 406.595 236.171 411.004 236.171 414.585 239.751 414.585 244.161Z"></path><path fill="var(--c-icon-bg-d4, #BDBDBD)" fill-rule="evenodd" d="M326.254 315.854C326.254 315.854 324.36 316.5 321.563 317.751 315.268 320.565 304.397 326.442 300.219 334.913 299.607 336.154 302.731 339.673 303.663 338.731 317.162 325.094 328.295 321.676 328.295 321.676L326.254 315.854Z"></path><path fill="var(--c-icon-bg-d4, #BDBDBD)" fill-rule="evenodd" d="M301.525 309.056C301.525 309.056 302.072 311.54 302.636 315.429 303.906 324.179 304.202 339.58 300.676 350.697 300.004 352.259 295.333 351.53 295.577 349.848 299.105 325.497 295.577 311.168 295.577 311.168L301.525 309.056Z"></path><path fill="var(--c-icon-primary, #0694F9)" fill-rule="evenodd" d="M308.932 335.137C309.079 334.092 308.349 333.124 307.304 332.977L296.873 331.512C295.828 331.365 294.86 332.094 294.713 333.139L294.181 336.926C294.034 337.971 294.764 338.939 295.809 339.086L306.24 340.552C307.285 340.698 308.253 339.969 308.399 338.924L308.932 335.137Z"></path><path fill="var(--c-icon-primary, #0694F9)" fill-rule="evenodd" d="M327.001 321.119C327.539 322.919 329.194 324.151 331.072 324.151 334.663 324.152 340.419 324.152 343.929 324.152 345.744 324.152 347.359 322.999 347.948 321.283 350.087 315.054 355.069 300.541 356.403 296.655 356.623 296.014 356.687 295.329 356.588 294.658 355.92 290.443 352.903 274.376 344.839 268.488 342.176 266.543 336.431 261.352 314.67 259.565 292.18 257.717 275.152 271.462 275.152 271.462 275.152 271.462 289.365 275.747 293.424 280.811 294.654 282.346 287.344 284.377 287.344 284.377L286.625 294.833 304.472 301.631C304.472 301.631 314.023 301.322 318.919 305.336 322.788 308.508 325.66 316.657 327.001 321.119ZM297.276 289.944C297.219 289.596 302.617 279.988 322.771 280.161 326.677 280.195 333.316 286.654 331.65 287.81 315.831 294.61 297.748 292.001 297.276 289.944Z"></path><path fill="var(--c-icon-bg, #FFFFFF)" fill-rule="evenodd" d="M267.513 274.07C270.855 271.943 274.735 270.813 278.698 270.813 278.874 270.813 279.048 270.813 279.217 270.813 279.871 270.813 280.487 271.12 280.881 271.642 281.274 272.164 281.4 272.84 281.22 273.469 280.924 274.505 280.613 275.594 280.433 276.224 280.317 276.623 280.078 276.976 279.75 277.231 278.117 278.419 273.942 282.173 277.305 285.26 279.378 286.306 283.382 285.364 286.068 284.521 287.791 284.103 289.608 284.613 290.861 285.867 291.036 285.819 291.093 285.876 291.142 285.924 291.257 286.042 291.293 286.216 291.233 286.37 290.838 287.514 289.6 292.212 294.302 295.458 297.314 297.464 300.727 297.577 303.263 297.243 303.968 297.154 304.665 297.451 305.09 298.019 305.515 298.588 305.602 299.341 305.318 299.991 304.726 301.619 304.075 303.107 304.075 303.107 304.075 303.107 303.569 310.783 297.276 311.605 289.621 312.455 288.778 305.656 288.778 305.656L276.88 297.158C276.88 297.158 254.278 291.21 246.891 289.266 246.491 289.161 246.191 288.828 246.127 288.419 246.063 288.01 246.248 287.602 246.597 287.38 250.927 284.625 261.244 278.059 267.513 274.07Z"></path><path fill="var(--c-icon, #222222)" fill-rule="evenodd" d="M296.264 339.579L297.103 339.697C296.893 342.87 296.523 346.279 295.997 349.909 295.959 350.175 296.152 350.38 296.414 350.558 296.784 350.808 297.305 350.981 297.851 351.069 298.508 351.176 299.203 351.159 299.718 350.971 299.972 350.878 300.182 350.75 300.279 350.544 301.264 347.431 301.948 343.983 302.367 340.436L303.205 340.554C302.779 344.16 302.083 347.665 301.081 350.826 301.076 350.839 301.071 350.853 301.066 350.865 300.858 351.348 300.373 351.689 299.731 351.856 298.914 352.067 297.835 352.006 296.946 351.729 296.314 351.531 295.78 351.221 295.472 350.846 295.217 350.534 295.1 350.177 295.156 349.787 295.682 346.157 296.051 342.75 296.264 339.579ZM351.295 278.106C349.641 274.454 347.45 271.1 344.616 269.032 341.973 267.101 336.265 261.963 314.663 260.189 296.427 258.691 281.81 267.522 277.082 270.813H279.726C280.259 270.813 280.762 271.063 281.083 271.489 281.358 271.853 281.473 272.31 281.371 272.75 293.557 269.29 316.93 263.016 336.58 274.268 336.716 274.347 336.799 274.494 336.793 274.651 336.711 277.143 338.649 278.239 341.079 278.682 344.778 279.357 349.641 278.513 351.295 278.106ZM296.814 331.932L307.245 333.398C307.619 333.451 307.942 333.639 308.159 333.915L308.161 333.918C308.364 334.147 308.482 334.442 308.492 334.761V334.764L308.511 335.078 307.979 338.865C307.864 339.678 307.112 340.245 306.299 340.131L295.868 338.665C295.055 338.551 294.488 337.798 294.602 336.985 294.602 336.985 295.134 333.198 295.134 333.198 295.241 332.44 295.903 331.895 296.65 331.942H296.655L296.814 331.932ZM301.213 309.678L301.218 309.672 302.216 315.49C302.774 319.335 303.143 324.471 303.053 329.961L303.034 331.948 303.201 331.972 301.639 331.752 301.158 332.473 301.639 331.752 297.515 331.173C297.731 320.461 296.531 313.669 296.114 311.679L296.112 311.668 297.276 311.605C298.99 311.381 300.275 310.649 301.213 309.678ZM295.164 311.268C295.163 311.263 295.16 311.25 295.16 311.25 295.161 311.256 295.162 311.262 295.164 311.268ZM295.156 311.227L295.155 311.225C295.157 311.232 295.158 311.24 295.159 311.248 295.159 311.248 295.157 311.233 295.156 311.227ZM295.154 311.216V311.213C295.154 311.214 295.154 311.215 295.154 311.216ZM295.152 311.167V311.17 311.167ZM295.156 311.107V311.104C295.156 311.105 295.156 311.106 295.156 311.107ZM295.168 311.053C295.166 311.058 295.165 311.064 295.164 311.069 295.165 311.064 295.166 311.058 295.168 311.053ZM295.171 311.042C295.171 311.042 295.172 311.038 295.172 311.038 295.172 311.039 295.171 311.042 295.171 311.042ZM295.173 311.036L295.175 311.032C295.174 311.033 295.174 311.034 295.173 311.036ZM295.175 311.029L295.177 311.025C295.176 311.027 295.176 311.028 295.175 311.029ZM295.186 311.003C295.183 311.009 295.181 311.015 295.178 311.021 295.178 311.021 295.184 311.008 295.186 311.003ZM295.198 310.978L295.2 310.974C295.199 310.975 295.198 310.976 295.198 310.978ZM295.22 310.939C295.218 310.943 295.216 310.947 295.213 310.951 295.216 310.947 295.218 310.943 295.22 310.939ZM295.231 310.924L295.233 310.921C295.233 310.922 295.232 310.923 295.231 310.924ZM295.241 310.911C295.242 310.91 295.246 310.905 295.246 310.905 295.244 310.907 295.243 310.909 295.241 310.911ZM295.285 310.865C295.283 310.867 295.281 310.869 295.279 310.871 295.279 310.871 295.283 310.866 295.285 310.865ZM295.31 310.844C295.311 310.844 295.315 310.841 295.315 310.841 295.313 310.842 295.312 310.843 295.31 310.844ZM295.317 310.839L295.321 310.837C295.32 310.837 295.318 310.838 295.317 310.839ZM273.868 271.663H279.726C279.993 271.663 280.244 271.788 280.404 272.001 280.565 272.214 280.616 272.49 280.543 272.746L279.844 275.194C279.655 275.854 279.271 276.442 278.741 276.879 278.741 276.88 278.74 276.88 278.74 276.88 277.769 277.687 276.406 279.021 275.694 280.528 274.889 282.234 274.835 284.146 276.73 285.886 276.788 285.939 276.853 285.984 276.922 286.019 278.08 286.603 279.772 286.676 281.554 286.443 283.442 286.196 285.437 285.628 286.892 285.12L286.909 285.114 288.06 284.744 288.304 284.727C288.541 284.678 288.779 284.765 288.954 284.94L290.004 285.989C290.217 286.202 290.301 286.512 290.225 286.804 290.225 286.807 290.224 286.809 290.223 286.812 289.741 288.74 289.319 293.05 293.819 296.157 293.823 296.16 293.827 296.163 293.831 296.165 297.269 298.455 301.194 298.449 303.937 298.003 303.939 298.002 303.942 298.002 303.945 298.001 304.251 297.948 304.562 298.068 304.754 298.312 304.946 298.557 304.988 298.888 304.863 299.172L303.296 302.766C303.257 302.856 303.233 302.953 303.227 303.051 303.227 303.051 303.106 304.826 302.261 306.698 301.922 307.447 301.465 308.217 300.812 308.856L300.808 308.859C299.975 309.815 298.795 310.547 297.178 310.761 296.535 310.832 295.946 310.845 295.407 310.791L295.4 310.79C294.209 310.73 293.257 310.415 292.499 309.964 289.982 308.469 289.621 305.552 289.621 305.552 289.592 305.316 289.465 305.103 289.272 304.965L277.374 296.466C277.29 296.406 277.196 296.362 277.096 296.336L246.683 288.332C246.683 288.332 272.043 272.194 272.043 272.194 272.589 271.847 273.222 271.663 273.868 271.663ZM295.343 310.822C295.346 310.82 295.356 310.815 295.356 310.815 295.351 310.817 295.347 310.82 295.343 310.822ZM295.373 310.805L295.377 310.804C295.376 310.804 295.375 310.805 295.373 310.805ZM295.389 310.798C295.387 310.799 295.384 310.8 295.381 310.802 295.383 310.801 295.389 310.798 295.389 310.798ZM301.719 308.677C301.721 308.678 301.727 308.681 301.727 308.681 301.725 308.68 301.719 308.677 301.719 308.677ZM301.706 308.671L301.711 308.673C301.71 308.673 301.708 308.672 301.706 308.671ZM301.397 308.651C301.395 308.651 301.392 308.652 301.39 308.653 301.391 308.652 301.397 308.651 301.397 308.651ZM301.399 308.65C301.4 308.649 301.405 308.648 301.405 308.648 301.404 308.648 301.399 308.65 301.399 308.65ZM301.448 308.638H301.445 301.448ZM301.54 308.631C301.55 308.631 301.561 308.632 301.571 308.633 301.561 308.632 301.55 308.631 301.54 308.631ZM301.526 308.631C301.52 308.631 301.514 308.631 301.507 308.631 301.514 308.631 301.52 308.631 301.526 308.631ZM296.585 300.716C294.562 300.716 292.92 302.358 292.92 304.381 292.92 306.405 294.562 308.047 296.585 308.047 298.608 308.047 300.251 306.405 300.251 304.381 300.251 302.358 298.608 300.716 296.585 300.716ZM296.585 301.566C298.139 301.566 299.401 302.827 299.401 304.381 299.401 305.935 298.139 307.197 296.585 307.197 295.031 307.197 293.769 305.935 293.769 304.381 293.769 302.827 295.031 301.566 296.585 301.566ZM356.196 294.922C355.798 292.407 354.56 285.657 351.903 279.396L351.667 278.895 351.658 278.897C350.109 279.293 344.877 280.239 340.927 279.518 338.127 279.007 335.977 277.664 335.941 274.883 316.622 263.963 293.725 270.125 281.697 273.541L281.725 273.552C282.922 274.019 284.189 274.559 285.447 275.148 288.825 276.73 292.129 278.68 293.784 280.745 294.093 281.131 294.093 281.536 293.847 281.945 293.675 282.232 293.348 282.531 292.913 282.815 292.029 283.39 290.67 283.934 289.528 284.318L289.555 284.339C289.89 284.672 290.278 285.06 290.605 285.388 291.032 285.814 291.2 286.435 291.048 287.018 290.612 288.76 290.237 292.651 294.302 295.458 297.532 297.609 301.224 297.583 303.8 297.164 304.415 297.057 305.038 297.297 305.423 297.788 305.808 298.279 305.892 298.942 305.642 299.513L304.815 301.41H304.825C306.586 301.396 314.776 301.567 319.216 305.208L319.262 305.254 319.26 305.246 356.203 295.171 356.196 294.922ZM296.857 290.013C296.858 290.022 296.86 290.031 296.862 290.039 296.918 290.282 297.111 290.553 297.484 290.798 297.889 291.065 298.538 291.334 299.399 291.574 304.823 293.091 319.052 293.688 331.818 288.2 331.844 288.189 331.869 288.175 331.892 288.159 332.216 287.934 332.366 287.593 332.334 287.153 332.299 286.692 332.026 286.079 331.552 285.409 330.549 283.992 328.643 282.249 326.67 281.078 325.317 280.275 323.931 279.746 322.775 279.736 306.419 279.596 299.659 285.849 297.632 288.52 297.194 289.097 296.967 289.525 296.898 289.711 296.843 289.859 296.849 289.965 296.857 290.013ZM297.742 289.926C297.898 289.655 298.415 288.808 299.254 287.94 302.053 285.046 308.848 280.467 322.768 280.586 323.799 280.595 325.029 281.092 326.236 281.809 328.102 282.916 329.91 284.56 330.858 285.9 331.168 286.338 331.385 286.736 331.462 287.067 331.499 287.224 331.518 287.358 331.433 287.44 320.46 292.142 308.4 292.29 301.987 291.256 300.372 290.996 299.121 290.663 298.351 290.306 298.126 290.202 297.947 290.098 297.818 289.992 297.79 289.968 297.763 289.947 297.742 289.926ZM280.661 275.427L281.017 274.182C282.31 274.684 283.704 275.27 285.087 275.918 288.336 277.439 291.529 279.291 293.12 281.277 293.206 281.384 293.142 281.491 293.049 281.605 292.913 281.773 292.703 281.937 292.45 282.102 291.344 282.822 289.46 283.485 288.287 283.843L288.273 283.847C288.102 283.851 287.931 283.885 287.766 283.946 285.474 284.778 279.89 286.563 277.305 285.26 274.214 282.423 277.491 279.022 279.283 277.534 279.944 276.987 280.425 276.253 280.661 275.427ZM286.948 284.542V284.545 284.542ZM286.95 284.526C286.95 284.529 286.949 284.532 286.949 284.536 286.949 284.532 286.95 284.529 286.95 284.526ZM286.954 284.503C286.953 284.504 286.953 284.505 286.953 284.506L286.954 284.503ZM286.966 284.453C286.961 284.469 286.957 284.485 286.954 284.501V284.499C286.957 284.484 286.961 284.469 286.965 284.455L286.966 284.453ZM286.968 284.445C286.968 284.447 286.967 284.449 286.966 284.451 286.966 284.451 286.968 284.447 286.968 284.445ZM286.974 284.429L286.975 284.426C286.975 284.427 286.974 284.428 286.974 284.429ZM286.977 284.42C286.977 284.422 286.976 284.423 286.976 284.424L286.977 284.42ZM286.982 284.409C286.981 284.41 286.981 284.412 286.98 284.413L286.982 284.409ZM286.986 284.4C286.986 284.4 286.984 284.405 286.983 284.407 286.983 284.407 286.985 284.402 286.986 284.4ZM286.992 284.387L286.991 284.389 286.992 284.387ZM287.027 284.33C287.025 284.332 287.024 284.333 287.023 284.335 287.024 284.334 287.027 284.33 287.027 284.33ZM287.065 284.284C287.052 284.297 287.04 284.312 287.029 284.327 287.04 284.312 287.052 284.297 287.065 284.284ZM287.115 284.239C287.114 284.24 287.114 284.24 287.113 284.241 287.114 284.24 287.114 284.24 287.115 284.239ZM287.215 284.183C287.212 284.184 287.21 284.185 287.208 284.186 287.21 284.185 287.212 284.184 287.215 284.183ZM287.226 284.179L287.222 284.18 287.226 284.179ZM287.252 284.17C287.251 284.17 287.251 284.171 287.25 284.171 287.251 284.171 287.251 284.17 287.252 284.17ZM275.181 272.938C274.09 272.938 273.204 273.823 273.204 274.914 273.204 276.005 274.09 276.89 275.181 276.89 276.271 276.89 277.157 276.005 277.157 274.914 277.157 273.823 276.271 272.938 275.181 272.938ZM275.181 273.787C275.802 273.787 276.307 274.292 276.307 274.914 276.307 275.536 275.802 276.04 275.181 276.04 274.559 276.04 274.054 275.536 274.054 274.914 274.054 274.292 274.559 273.787 275.181 273.787ZM327.957 322.268L327.953 322.262 327.576 321.486 327.436 321.198C327.038 319.872 326.504 318.226 325.819 316.493L325.811 316.473 325.496 315.681C324.129 312.073 322.229 308.216 319.954 305.946L319.947 305.94 356.17 296.061 356.029 296.717 347.575 321.345C347.044 322.89 345.591 323.928 343.958 323.928 340.448 323.928 334.691 323.928 331.1 323.927 331.1 323.927 331.1 323.927 331.1 323.927 329.818 323.927 328.651 323.288 327.957 322.268ZM327.167 322.564C324.447 323.637 317.61 326.827 309.224 334.12L308.904 333.465 308.807 333.377C317.154 326.129 323.979 322.911 326.802 321.811L326.623 321.442C326.23 320.135 325.706 318.505 325.037 316.789L321.736 318.139C316.775 320.357 308.931 324.485 303.897 330.346L303.911 329.003C309.079 323.474 316.561 319.522 321.389 317.363L324.71 315.977C323.251 312.091 321.182 307.918 318.678 305.865 313.88 301.931 304.514 302.257 304.514 302.257L304.45 302.246 304.075 303.107C304.075 303.107 303.857 306.418 301.892 308.9L301.94 308.964C301.94 308.964 302.49 311.461 303.057 315.368 303.587 319.023 303.948 323.832 303.909 329.005L303.878 332.067 307.363 332.557C307.956 332.64 308.465 332.939 308.807 333.377L308.904 333.465 309.224 334.12 309.225 334.123C309.365 334.452 309.405 334.82 309.352 335.196L308.82 338.983C308.641 340.261 307.458 341.152 306.181 340.972L295.75 339.506C294.472 339.327 293.581 338.144 293.76 336.867 293.76 336.867 294.293 333.08 294.293 333.08 294.46 331.893 295.493 331.039 296.663 331.107 296.88 320.04 295.585 313.216 295.232 311.63L295.224 311.629C289.464 311.192 288.778 305.656 288.778 305.656L276.88 297.158C276.88 297.158 253.365 290.97 246.467 289.154 246.14 289.068 245.896 288.797 245.844 288.463 245.791 288.13 245.942 287.797 246.227 287.616 251.411 284.316 267.349 274.174 271.587 271.477 272.269 271.043 273.06 270.813 273.868 270.813H275.6C279 268.308 294.72 257.698 314.733 259.342 336.653 261.142 342.435 266.386 345.118 268.345 348.4 270.742 350.871 274.788 352.685 279.064 355.378 285.408 356.633 292.247 357.036 294.792 357.037 294.794 357.037 294.796 357.037 294.797 357.145 295.535 357.075 296.288 356.833 296.993 355.499 300.88 350.517 315.392 348.379 321.621 347.73 323.509 345.954 324.777 343.958 324.777 340.448 324.777 334.691 324.777 331.1 324.777 329.461 324.777 327.977 323.923 327.167 322.564Z"></path><path fill="var(--c-icon-bg-d2, #EEEEEE)" fill-rule="evenodd" d="M350.001 404.578C350.001 399.018 345.488 394.504 339.928 394.504 339.928 394.504 132.612 394.504 132.612 394.504 127.053 394.504 122.539 399.018 122.539 404.578V527.407C122.539 532.967 127.053 537.481 132.612 537.481 132.612 537.481 339.928 537.481 339.928 537.481 345.488 537.481 350.001 532.967 350.001 527.407 350.001 527.407 350.001 404.578 350.001 404.578Z"></path><path fill="var(--c-icon, #222222)" fill-rule="evenodd" d="M352.085 404.578C352.085 397.868 346.637 392.421 339.928 392.421 339.928 392.421 132.612 392.421 132.612 392.421 125.903 392.421 120.456 397.868 120.456 404.578V527.407C120.456 534.117 125.903 539.564 132.612 539.564 132.612 539.564 339.928 539.564 339.928 539.564 346.637 539.564 352.085 534.117 352.085 527.407 352.085 527.407 352.085 404.578 352.085 404.578ZM347.918 404.578C347.918 404.578 347.918 527.407 347.918 527.407 347.918 531.817 344.338 535.397 339.928 535.397 339.928 535.397 132.612 535.397 132.612 535.397 128.203 535.397 124.623 531.817 124.623 527.407V404.578C124.623 400.168 128.203 396.588 132.612 396.588 132.612 396.588 339.928 396.588 339.928 396.588 344.338 396.588 347.918 400.168 347.918 404.578Z"></path><rect width="83.41" height="86.05" x="194.606" y="423.642" fill="var(--c-icon-bg, #FFFFFF)" fill-rule="evenodd"></rect><path fill="var(--c-icon-primary, #0694F9)" fill-rule="evenodd" d="M249.143 487.293C249.143 485.083 248.265 482.963 246.702 481.4 245.139 479.837 243.02 478.959 240.809 478.959 237.926 478.959 234.695 478.959 231.812 478.959 229.602 478.959 227.482 479.837 225.919 481.4 224.356 482.963 223.478 485.083 223.478 487.293 223.478 496.394 223.478 509.692 223.478 509.692H249.143V487.293ZM220.27 453.268C220.27 452.182 219.389 451.301 218.303 451.301H209.405C208.319 451.301 207.438 452.182 207.438 453.268V461.627C207.438 462.712 208.319 463.593 209.405 463.593H218.303C219.389 463.593 220.27 462.712 220.27 461.627V453.268ZM242.646 453.268C242.646 452.182 241.765 451.301 240.679 451.301H231.781C230.695 451.301 229.814 452.182 229.814 453.268V461.627C229.814 462.712 230.695 463.593 231.781 463.593H240.679C241.765 463.593 242.646 462.712 242.646 461.627V453.268ZM265.183 453.268C265.183 452.182 264.302 451.301 263.216 451.301H254.318C253.232 451.301 252.351 452.182 252.351 453.268V461.627C252.351 462.712 253.232 463.593 254.318 463.593H263.216C264.302 463.593 265.183 462.712 265.183 461.627V453.268ZM220.19 434.828C220.19 433.743 219.308 432.861 218.223 432.861H209.324C208.239 432.861 207.357 433.743 207.357 434.828V443.187C207.357 444.273 208.239 445.154 209.324 445.154H218.223C219.308 445.154 220.19 444.273 220.19 443.187V434.828ZM242.565 434.828C242.565 433.743 241.684 432.861 240.598 432.861H231.7C230.614 432.861 229.733 433.743 229.733 434.828V443.187C229.733 444.273 230.614 445.154 231.7 445.154H240.598C241.684 445.154 242.565 444.273 242.565 443.187V434.828ZM265.102 434.828C265.102 433.743 264.221 432.861 263.136 432.861H254.237C253.152 432.861 252.27 433.743 252.27 434.828V443.187C252.27 444.273 253.152 445.154 254.237 445.154H263.136C264.221 445.154 265.102 444.273 265.102 443.187V434.828Z"></path><path fill="var(--c-icon, #222222)" fill-rule="evenodd" d="M280.099 507.608V425.725H284.351C285.501 425.725 286.434 424.792 286.434 423.642 286.434 422.492 285.501 421.558 284.351 421.558H188.109C186.959 421.558 186.026 422.492 186.026 423.642 186.026 424.792 186.959 425.725 188.109 425.725H192.522V507.608H188.19C187.04 507.608 186.106 508.542 186.106 509.692 186.106 510.841 187.04 511.775 188.19 511.775H284.432C285.581 511.775 286.515 510.841 286.515 509.692 286.515 508.542 285.581 507.608 284.432 507.608H280.099ZM196.689 507.608H275.932V425.725H196.689C196.689 425.725 196.689 507.608 196.689 507.608Z"></path><path fill="var(--c-icon-bg, #FFFFFF)" fill-rule="evenodd" d="M387.246 412.469L377.792 428.937C376.174 431.756 375.964 435.17 377.226 438.166 380.342 445.566 387.121 461.663 389.457 467.21 390.122 468.79 391.167 470.181 392.498 471.26 394.191 472.632 396.978 474.891 399.745 477.133 405.571 481.855 411.993 485.788 418.846 488.833 423.541 490.918 429.177 493.422 434.159 495.636 441.986 499.113 448.474 505.035 452.65 512.513 462.174 529.572 478.379 558.594 478.379 558.594 478.94 559.598 480.21 559.958 481.214 559.398 482.218 558.837 542.056 525.427 543.06 524.866 544.064 524.306 544.424 523.036 543.863 522.032 543.863 522.032 526.54 491.006 517.189 474.257 513.572 467.78 511.848 460.416 512.215 453.007 512.456 448.128 512.734 442.496 512.975 437.617 513.38 429.427 511.475 421.289 507.477 414.13 499.848 400.465 486.532 376.616 478.772 362.717 474.845 355.685 465.961 353.167 458.929 357.094 458.929 357.094 457.924 357.654 458.929 357.094 455.552 358.979 453.062 362.129 452.008 365.85 451.98 365.946 451.954 366.043 451.929 366.14 447.648 360.259 439.55 358.37 433.039 362.005 433.039 362.005 432.034 362.566 433.039 362.005 429.28 364.104 426.811 367.619 425.926 371.51 424.128 369.586 421.826 368.168 419.249 367.438 415.528 366.383 411.541 366.85 408.164 368.736 408.164 368.736 407.159 369.297 408.164 368.736 404.787 370.621 402.297 373.771 401.242 377.492 401.229 377.54 401.216 377.587 401.202 377.636L374.693 330.158C372.808 326.781 369.658 324.291 365.937 323.236 362.216 322.182 358.228 322.649 354.851 324.534 354.851 324.534 353.846 325.095 354.851 324.534 351.474 326.42 348.984 329.569 347.93 333.291 346.875 337.012 347.342 341 349.227 344.377L387.246 412.469Z"></path><path fill="var(--c-icon, #222222)" fill-rule="evenodd" d="M387.246 412.469L377.792 428.937C376.174 431.756 375.964 435.17 377.226 438.166 380.342 445.566 387.121 461.663 389.457 467.21 390.122 468.79 391.167 470.181 392.498 471.26 394.191 472.632 396.978 474.891 399.745 477.133 405.571 481.855 411.993 485.788 418.846 488.833 423.541 490.918 429.177 493.422 434.159 495.636 441.986 499.113 448.474 505.035 452.65 512.513 462.174 529.572 478.379 558.594 478.379 558.594 478.94 559.598 480.21 559.958 481.214 559.398 482.218 558.837 482.578 557.567 482.017 556.563 482.017 556.563 465.812 527.54 456.288 510.482 451.673 502.217 444.502 495.671 435.851 491.828 430.869 489.615 425.232 487.111 420.538 485.025 414.019 482.129 407.91 478.387 402.369 473.896 399.602 471.654 396.814 469.395 395.122 468.023 394.323 467.376 393.696 466.541 393.297 465.593 390.961 460.045 384.182 443.949 381.066 436.549 380.309 434.751 380.435 432.703 381.406 431.011L389.615 416.711 410.165 453.517C410.726 454.521 411.996 454.881 413 454.32 414.004 453.76 414.364 452.489 413.803 451.485 413.803 451.485 369.387 371.936 352.865 342.345 351.519 339.933 351.185 337.085 351.938 334.427 352.692 331.769 354.47 329.519 356.882 328.172 359.294 326.825 362.143 326.492 364.801 327.245 367.459 327.998 369.709 329.777 371.055 332.189L423.868 426.777C424.359 427.656 425.392 428.041 426.316 427.748 426.316 427.748 426.384 427.725 426.384 427.725L426.463 427.695C426.463 427.695 426.512 427.675 426.512 427.675 426.512 427.675 426.56 427.653 426.56 427.653 426.56 427.653 426.608 427.63 426.608 427.63 426.608 427.63 426.656 427.606 426.656 427.606 426.656 427.606 426.703 427.581 426.703 427.581 426.703 427.581 426.749 427.554 426.749 427.554 426.749 427.554 426.795 427.526 426.795 427.526 426.795 427.526 426.84 427.497 426.84 427.497 426.84 427.497 426.883 427.467 426.883 427.467 426.883 427.467 426.926 427.437 426.926 427.437 426.926 427.437 426.968 427.405 426.968 427.405 426.968 427.405 427.009 427.372 427.009 427.372 427.009 427.372 427.049 427.339 427.049 427.339 427.049 427.339 427.087 427.305 427.087 427.305 427.087 427.305 427.125 427.27 427.125 427.27 427.125 427.27 427.162 427.234 427.162 427.234 427.162 427.234 427.198 427.197 427.198 427.197 427.198 427.197 427.233 427.159 427.233 427.159 427.233 427.159 427.266 427.121 427.266 427.121 427.266 427.121 427.299 427.082 427.299 427.082 427.299 427.082 427.331 427.042 427.331 427.042 427.331 427.042 427.361 427.002 427.361 427.002 427.361 427.002 427.391 426.961 427.391 426.961 427.391 426.961 427.419 426.919 427.419 426.919 427.419 426.919 427.447 426.877 427.447 426.877 427.447 426.877 427.473 426.834 427.473 426.834 427.473 426.834 427.499 426.791 427.499 426.791 427.499 426.791 427.523 426.747 427.523 426.747 427.523 426.747 427.546 426.702 427.546 426.702 427.546 426.702 427.568 426.657 427.568 426.657 427.568 426.657 427.589 426.611 427.589 426.611 427.589 426.611 427.609 426.565 427.609 426.565 427.609 426.565 427.628 426.519 427.628 426.519 427.628 426.519 427.645 426.472 427.645 426.472 427.645 426.472 427.662 426.425 427.662 426.425 427.662 426.425 427.677 426.377 427.677 426.377 427.677 426.377 427.691 426.329 427.691 426.329 427.691 426.329 427.704 426.281 427.704 426.281 427.704 426.281 427.716 426.233 427.716 426.233 427.716 426.233 427.727 426.184 427.727 426.184 427.727 426.184 427.745 426.085 427.745 426.085 427.745 426.085 427.758 425.986 427.758 425.986 427.758 425.986 427.767 425.886 427.767 425.886 427.767 425.886 427.77 425.786 427.77 425.786 427.77 425.786 427.769 425.685 427.769 425.685 427.769 425.685 427.763 425.584 427.763 425.584 427.763 425.584 427.752 425.483 427.752 425.483 427.752 425.483 427.745 425.433 427.745 425.433 427.745 425.433 427.736 425.382 427.736 425.382 427.736 425.382 427.726 425.332 427.726 425.332 427.726 425.332 427.715 425.282 427.715 425.282 427.715 425.282 427.703 425.232 427.703 425.232 427.703 425.232 427.689 425.183 427.689 425.183 427.689 425.183 427.674 425.133 427.674 425.133 427.674 425.133 427.657 425.084 427.657 425.084 427.657 425.084 427.64 425.034 427.64 425.034 427.64 425.034 427.621 424.986 427.621 424.986 427.621 424.986 427.601 424.937 427.601 424.937 427.601 424.937 427.579 424.889 427.579 424.889 427.579 424.889 427.556 424.841 427.556 424.841 427.556 424.841 427.532 424.793 427.532 424.793 427.532 424.793 427.506 424.746 427.506 424.746 427.506 424.746 406.178 386.547 406.178 386.547 404.831 384.135 404.498 381.286 405.251 378.628 406.004 375.97 407.783 373.72 410.195 372.374 412.607 371.027 415.455 370.693 418.113 371.447 420.771 372.2 423.021 373.978 424.368 376.391L445.696 414.59H445.697C446.135 415.374 447.005 415.765 447.844 415.632 447.844 415.632 447.904 415.621 447.904 415.621L447.958 415.61 448.044 415.589C448.044 415.589 448.116 415.569 448.116 415.569L448.193 415.544C448.193 415.544 448.242 415.527 448.242 415.527 448.242 415.527 448.291 415.508 448.291 415.508 448.291 415.508 448.34 415.487 448.34 415.487 448.34 415.487 448.388 415.466 448.388 415.466 448.388 415.466 448.436 415.443 448.436 415.443 448.436 415.443 448.484 415.419 448.484 415.419 448.484 415.419 448.531 415.393 448.531 415.393 448.531 415.393 448.599 415.353 448.599 415.353L448.668 415.31C448.668 415.31 448.731 415.266 448.731 415.266L448.796 415.217C448.796 415.217 448.855 415.169 448.855 415.169L448.915 415.117C448.915 415.117 448.99 415.046 448.99 415.046 448.99 415.046 449.061 414.972 449.061 414.972 449.061 414.972 449.127 414.894 449.127 414.894 449.127 414.894 449.189 414.814 449.189 414.814 449.189 414.814 449.247 414.732 449.247 414.732 449.247 414.732 449.301 414.646 449.301 414.646 449.301 414.646 449.351 414.559 449.351 414.559 449.351 414.559 449.396 414.469 449.396 414.469 449.396 414.469 449.437 414.378 449.437 414.378 449.437 414.378 449.473 414.285 449.473 414.285 449.473 414.285 449.505 414.19 449.505 414.19 449.505 414.19 449.532 414.094 449.532 414.094 449.532 414.094 449.555 413.996 449.555 413.996 449.555 413.996 449.573 413.898 449.573 413.898 449.573 413.898 449.586 413.799 449.586 413.799 449.586 413.799 449.595 413.699 449.595 413.699 449.595 413.699 449.598 413.598 449.598 413.598 449.598 413.598 449.598 413.526 449.598 413.526L449.595 413.447C449.595 413.447 449.589 413.374 449.589 413.374L449.58 413.296C449.58 413.296 449.564 413.195 449.564 413.195 449.564 413.195 449.543 413.095 449.543 413.095 449.543 413.095 449.517 412.995 449.517 412.995 449.517 412.995 449.502 412.945 449.502 412.945 449.502 412.945 449.485 412.896 449.485 412.896 449.485 412.896 449.468 412.847 449.468 412.847 449.468 412.847 449.449 412.798 449.449 412.798 449.449 412.798 449.429 412.749 449.429 412.749 449.429 412.749 449.407 412.701 449.407 412.701 449.407 412.701 449.384 412.653 449.384 412.653 449.384 412.653 449.36 412.606 449.36 412.606 449.36 412.606 449.334 412.558 449.334 412.558L431.053 379.816C428.248 374.793 430.047 368.448 435.07 365.643 440.093 362.839 446.438 364.637 449.243 369.66L467.524 402.402 467.525 402.403C467.963 403.187 468.834 403.578 469.672 403.444 469.672 403.444 469.732 403.434 469.732 403.434L469.786 403.422 469.873 403.402C469.873 403.402 469.944 403.382 469.944 403.382L470.021 403.357C470.021 403.357 470.07 403.339 470.07 403.339 470.07 403.339 470.119 403.32 470.119 403.32 470.119 403.32 470.168 403.3 470.168 403.3 470.168 403.3 470.216 403.278 470.216 403.278 470.216 403.278 470.264 403.255 470.264 403.255 470.264 403.255 470.312 403.231 470.312 403.231 470.312 403.231 470.359 403.205 470.359 403.205 470.359 403.205 470.427 403.165 470.427 403.165L470.496 403.122C470.496 403.122 470.559 403.078 470.559 403.078L470.624 403.03C470.624 403.03 470.683 402.982 470.683 402.982L470.743 402.93C470.743 402.93 470.818 402.858 470.818 402.858 470.818 402.858 470.889 402.784 470.889 402.784 470.889 402.784 470.955 402.707 470.955 402.707 470.955 402.707 471.017 402.627 471.017 402.627 471.017 402.627 471.076 402.544 471.076 402.544 471.076 402.544 471.129 402.459 471.129 402.459 471.129 402.459 471.179 402.371 471.179 402.371 471.179 402.371 471.224 402.282 471.224 402.282 471.224 402.282 471.265 402.19 471.265 402.19 471.265 402.19 471.301 402.097 471.301 402.097 471.301 402.097 471.333 402.002 471.333 402.002 471.333 402.002 471.36 401.906 471.36 401.906 471.36 401.906 471.383 401.809 471.383 401.809 471.383 401.809 471.401 401.71 471.401 401.71 471.401 401.71 471.414 401.611 471.414 401.611 471.414 401.611 471.423 401.511 471.423 401.511 471.423 401.511 471.427 401.411 471.427 401.411 471.427 401.411 471.425 401.31 471.425 401.31 471.425 401.31 471.419 401.209 471.419 401.209 471.419 401.209 471.408 401.108 471.408 401.108 471.408 401.108 471.392 401.007 471.392 401.007 471.392 401.007 471.371 400.907 471.371 400.907 471.371 400.907 471.359 400.857 471.359 400.857 471.359 400.857 471.345 400.807 471.345 400.807 471.345 400.807 471.33 400.758 471.33 400.758 471.33 400.758 471.314 400.708 471.314 400.708 471.314 400.708 471.277 400.61 471.277 400.61 471.277 400.61 471.257 400.562 471.257 400.562 471.257 400.562 471.235 400.514 471.235 400.514 471.235 400.514 471.201 400.443 471.201 400.443L471.162 400.371 456.943 374.905C455.597 372.493 455.263 369.644 456.017 366.986 456.77 364.328 458.548 362.078 460.96 360.732 465.983 357.927 472.329 359.725 475.133 364.748 482.894 378.647 496.21 402.496 503.839 416.161 507.456 422.638 509.18 430.002 508.813 437.411 508.572 442.29 508.294 447.922 508.053 452.801 507.648 460.991 509.553 469.129 513.551 476.289 522.902 493.038 540.225 524.063 540.225 524.063 540.786 525.067 542.056 525.427 543.06 524.866 544.064 524.306 544.424 523.036 543.863 522.032 543.863 522.032 526.54 491.006 517.189 474.257 513.572 467.78 511.848 460.416 512.215 453.007 512.456 448.128 512.734 442.496 512.975 437.617 513.38 429.427 511.475 421.289 507.477 414.13 499.848 400.465 486.532 376.616 478.772 362.717 474.845 355.685 465.961 353.167 458.929 357.094 458.929 357.094 457.924 357.654 458.929 357.094 455.552 358.979 453.062 362.129 452.008 365.85 451.98 365.946 451.954 366.043 451.929 366.14 447.648 360.259 439.55 358.37 433.039 362.005 433.039 362.005 432.034 362.566 433.039 362.005 429.28 364.104 426.811 367.619 425.926 371.51 424.128 369.586 421.826 368.168 419.249 367.438 415.528 366.383 411.541 366.85 408.164 368.736 408.164 368.736 407.159 369.297 408.164 368.736 404.787 370.621 402.297 373.771 401.242 377.492 401.229 377.54 401.216 377.587 401.202 377.636L374.693 330.158C372.808 326.781 369.658 324.291 365.937 323.236 362.216 322.182 358.228 322.649 354.851 324.534 354.851 324.534 353.846 325.095 354.851 324.534 351.474 326.42 348.984 329.569 347.93 333.291 346.875 337.012 347.342 341 349.227 344.377L387.246 412.469Z"></path></svg>