<!-- Logo brand BIKE -->

<svg viewBox="0 0 128 64" xmlns="http://www.w3.org/2000/svg" fill="var(--c-text)" aria-label="bikeit logo" class="logo-Q0mO_3"><defs><linearGradient id="a" x1="0%" x2="99.489%" y1="50%" y2="50%"><stop offset="0%" stop-color="#ED6939"></stop><stop offset="100%" stop-color="#F7A403"></stop></linearGradient></defs><g fill-rule="evenodd" fill="#004F9F"><path d="M112 15.71c-.46 2.61-.92 5.21-1.37 7.83H98.96c-.37 2.09-.73 4.16-1.11 6.28h8.89c-.47 2.64-.92 5.23-1.38 7.85h-8.9c-.44 2.49-.87 4.95-1.31 7.47h12.12c-.43 2.64-.86 5.24-1.28 7.84H85.16c1.98-11.32 3.96-22.63 5.95-33.95 .19-1.11.39-2.22.58-3.35h20.25Zm-23.39 0c-4.17 5.16-8.3 10.26-12.43 15.37l3.26 10.95v0l3.26 10.94h-9.41c-1.38-4.6-2.75-9.2-4.13-13.83 -.48.51-1.94 2.28-2.06 2.43l-.01 0 -1.98 11.37h-8.64c1.72-9.84 3.45-19.68 5.18-29.51 .19-1.13.39-2.25.58-3.37l.29-1.7h8.57c-.17.94-.39 2.23-.62 3.55l-.1.52c-.46 2.63-.91 5.22-.85 5.2 .02-.05 2.44-3.17 4.99-6.47l1.01-1.31c1.09-1.42 2.16-2.8 3.02-3.91l.25-.33h9.73Zm-30.11 0c-2.18 12.43-4.35 24.85-6.52 37.27h-8.55c1.23-7.15 2.45-14.29 3.69-21.43 .91-5.29 1.84-10.57 2.77-15.86h8.58Zm-22.61.26c3.25.2 6.17 1.64 7.21 5.12 1.14 3.84.14 7.32-2.54 10.28 -.61.66-1.33 1.21-2.02 1.83 4.34 3.72 3.51 8.25 1.5 12.71 -2.14 4.73-6.35 6.49-11.22 6.96l-.15-.01v0l-.15-.01 -.38-.01c-.08.01-.16.02-.24.03 -.13-.01-.25-.02-.36.05 -3.77 0-7.53 0-11.29-.02 -.12-.01-.23-.19-.34-.28 .05-.05.04-.11.04-.17 .01-.05.02-.09.03-.13 2.13-12.24 4.27-24.47 6.37-36.5 4.53 0 9-.22 13.43.07Zm-8.57 21.18c-.17.93-.33 1.86-.49 2.79l-.97 5.54 .47.02c2.2.08 4.33-.06 5.71-2.18 .92-1.44 1.51-3.13.51-4.69 -.9-1.39-2.26-1.49-3.66-1.49l-.41 0 -.41 0c-.27 0-.54-.01-.8-.03Zm2.42-14.01s-.93 5.45-1.12 6.54c3.65.32 5.7-1.05 6.1-4.07 .39-3.03-4.99-2.48-4.99-2.48Z"></path><path fill="url(#a)" d="M81.72 10.81c-.07-.51-.66-.5-1.1-.55 -.1-.06-.22-.02-.32-.07 -.1-.01-.2-.01-.3-.02l-.18-.02c-.31-.06-.62-.08-.93 0h-.05c-.01-.01-.02-.02-.03-.03 -.42-.03-.84-.06-1.25.02 0-.01 0-.01-.01-.01 -.29 0-.58.01-.87.02 -.45.03-.9.06-1.35.09 -.42.03-.84.06-1.26.1 -.05-.01-.08 0-.12 0 -.35.02-.7.05-1.04.08 -.42.03-.84.06-1.25.09l-.01 0v-.01c-.48.03-.96.06-1.44.09 -.48.02-.96.05-1.44.08 -.29 0-.58 0-.87.01 -.1 0-.2 0-.3 0 -.74-.01-1.47-.01-2.21-.01 -.55-.04-1.09-.07-1.64-.11 -.33-.04-.64-.07-.96-.11 -.58-.1-1.16-.2-1.73-.3 -.49-.1-.97-.19-1.45-.28 -1.34.11-1.78 1.04-1.79 2.19 -.02 1.14.56 1.87 1.78 1.94 .47-.04.95-.07 1.43-.11 .54.06 1.08.13 1.63.19 .25.09.51.19.77.29 .01.03.04.04.07.05l0 0c.06.02.12.04.19.07 .51.23 1.03.47 1.55.71 .57.13 1.14.26 1.71.39 .57.01 1.15.02 1.73.03 .45-.09.9-.18 1.35-.27 .44-.26.89-.51 1.34-.77 .02-.03.05-.05.08-.07 .03-.03.06-.05.09-.08l-.01 0c.03-.05.07-.08.12-.1 .41-.26.82-.52 1.23-.78 .32-.13.65-.26.97-.38h0l1.34-.27c.05-.01.1-.02.17-.04 .47-.07.95-.14 1.43-.2 .18-.04.37-.08.56-.11 .03-.01.06-.01.09-.01 .08-.07.2 0 .29-.08 .35-.1.71-.19 1.07-.29l1.13-.4 .04 0 .04-.03c.04-.03.07-.07.12-.07l.03 0 .02-.03c.05-.06.13-.03.18-.09 .45-.24 1.11-.38 1.03-1.01"></path></g></svg>