<!-- Logo brand GV -->

<svg viewBox="0 0 128 64" xmlns="http://www.w3.org/2000/svg" fill="var(--c-text)" aria-label="bikeit logo" class="logo-Q0mO_3"><path fill="#D33" fill-rule="evenodd" d="M36.57 42.72h-2.55v5.34c-.05.94-.57 1.5-1.47 1.59 -.87.08-1.56-.39-1.77-1.21 -.05-.22-.09-.48-.09-.69v-5h-2.55v4.99c0 .43.04.81.12 1.24 .25 1.42 1.07 2.37 2.45 2.75 1.07.3 2.15.3 3.23 0 .9-.26 1.63-.74 2.07-1.6 .38-.69.56-1.47.56-2.29v-4.96c-.05-.13-.05-.18-.05-.22Zm69 3.74h-4.02c-.05 0-.09.04-.13.08 -.05.04-.05.12-.05.17 -.13.51-.26 1.03-.39 1.55h1.76c-.13.38-.22.77-.35 1.16 0 .04-.09.08-.13.12 -.44.17-.87.21-1.3.21 -.65-.05-1.17-.31-1.51-.82 -.35-.57-.35-1.17-.22-1.81 .56-2.42 3.45-3.11 5.13-1.56 .04.04.08.08.12.08 .56-.57 1.12-1.08 1.68-1.64 -.31-.39-.7-.69-1.17-.91 -1.69-.82-3.41-.82-5.14-.09 -1.99.86-3.11 2.37-3.28 4.56 -.05.73 0 1.42.34 2.06 .56 1.16 1.55 1.85 2.8 2.11 .3.08.6.08.9.12h.69c.04 0 .12-.05.17-.05 .94-.05 1.85-.35 2.71-.82 .08-.05.12-.13.17-.22 .25-.87.47-1.69.73-2.55 .08-.61.25-1.25.38-1.86Zm-79.1 0h-4.15v1.68c0 .12.08.12.17.12h1.63v.94c0 .12-.05.21-.18.25 -.65.3-1.34.38-1.99.17 -.91-.26-1.51-.87-1.73-1.81 -.22-1 0-1.86.77-2.55 .77-.74 1.94-.69 2.8-.31 .3.17.6.34.9.56 .47-.57.94-1.17 1.46-1.73 -.09-.05-.13-.09-.18-.13 -1-.78-2.12-1.17-3.37-1.17 -.91 0-1.73.12-2.55.56 -1.9.99-2.89 3.14-2.38 5.25 .47 1.85 1.68 2.97 3.53 3.44 .3.08.6.08.9.12h.73c.04 0 .08-.05.12-.05 1.2-.09 2.28-.57 3.27-1.25 .08-.09.12-.13.12-.26v-3.93Zm67.41-1.43c.34.17.6.38.94.6 .51-.52 1.07-1.04 1.63-1.6 -.05-.05-.09-.13-.13-.18 -.31-.35-.7-.61-1.13-.82 -1.13-.57-2.33-.65-3.58-.48 -2.42.34-4.58 2.24-4.75 4.91 -.05.73 0 1.46.34 2.15 .56 1.16 1.55 1.8 2.8 2.11 .3.04.6.08.9.12h.69c.04 0 .12-.05.17-.05 .94-.05 1.85-.35 2.71-.82 .08-.05.17-.13.17-.22 .38-1.43.81-2.85 1.2-4.27 0-.05 0-.09.04-.13h-4.15c-.18.6-.31 1.2-.48 1.8h1.72c-.13.43-.22.77-.35 1.16 0 .04-.09.08-.13.12 -.44.17-.87.25-1.3.17 -.7-.09-1.3-.35-1.6-1 -.26-.52-.26-1.08-.13-1.64 .47-2.12 2.76-2.81 4.31-2.03Zm-35.67-2.25c-.05-.13-.13-.18-.26-.18h-1.99c-.18 0-.26.04-.35.21 -1.13 2.62-2.2 5.21-3.33 7.84 -.13.34-.31.68-.44 1.03h2.5c.08 0 .12-.05.17-.13 .17-.44.34-.87.51-1.34 .04-.13.08-.13.21-.13h3.19c.12 0 .17.04.21.17 .17.43.34.86.51 1.29 .04.12.12.17.25.17h2.5c-.05-.09-.05-.13-.05-.18 -1.26-2.98-2.46-5.91-3.71-8.8Zm26.78-.18h-2.33c-.05 0-.13.04-.18.12 -2.03 2.93-4.1 5.9-6.13 8.83 -.05.04-.05.08-.09.12h2.58c.08 0 .17-.09.21-.13 .3-.44.6-.91.9-1.34 .04-.05.12-.13.17-.13h3.27c.08 0 .12.04.17.12 .04.43.12.86.17 1.29 0 .12.08.17.21.17h2.45c-.48-3.06-.95-6.08-1.43-9.05l-.05-.05Zm-44.08.08H38.4v8.79c0 .12.04.21.17.21h2.11c.17 0 .21-.05.21-.22v-8.62c.04-.09.04-.13 0-.18Zm33.55-.05h-2.68c-.13 0-.18.04-.26.12 -1.13 1.76-2.25 3.57-3.37 5.34 -.05.04-.05.08-.09.12h-.05v-5.56H65.5v8.83c0 .12.04.17.17.17h2.5c.12 0 .21-.05.25-.13 1.72-2.59 3.45-5.18 5.17-7.76 .3-.39.56-.78.81-1.17Zm33.46 0c-.18 0-.22.04-.26.21 -.7 2.54-1.39 5.08-2.08 7.62 -.09.38-.22.77-.31 1.16h2.28c.17 0 .21-.05.25-.22 .73-2.81 1.5-5.65 2.28-8.45 .04-.13.04-.26.08-.39h-.22c-.7.04-1.39.08-2.08.04Zm-30.11 0h-2.33c-.13 0-.22.04-.26.17 -.7 2.54-1.39 5.08-2.08 7.62 -.09.38-.22.77-.31 1.2h2.24c.17 0 .25-.05.3-.26 .6-2.2 1.16-4.4 1.76-6.64 .25-.65.43-1.34.64-2.12Zm-27.39 1.24c-.95-.87-2.12-1.21-3.33-1.25 -1.26-.05-2.51 0-3.8 0h-.13v9h3.57c.56 0 1.12-.09 1.68-.22 1.2-.35 2.19-1 2.84-2.16 .43-.82.56-1.73.51-2.68 -.13-1.04-.57-1.99-1.39-2.72Zm-3.58 5.6h-1.17V44.9s0-.05.04-.05c.64 0 1.29-.05 1.94.12 1.03.3 1.59 1.12 1.55 2.24 0 1.42-1.04 2.15-2.38 2.24Zm9.01-1.38c.34-.87.69-1.69 1.03-2.59 .34.86.69 1.72.99 2.58h-2.03Zm25.48 0c.56-.87 1.12-1.69 1.63-2.55H83c.08.81.21 1.68.3 2.54h-1.99Zm28.98-35.08c.04-.05.08-.13.12-.22H96.45c-.13 0-.22.04-.31.17 -1.99 3.14-16.83 27.01-17.26 27.75h.21c4.09-.05 8.28-.05 12.46-.05h.12c.04 0 .08-.05.12-.05l18.45-27.63ZM49.95 25.29c.02.01.04.02.06.04 .86.51 1.72 1.16 2.54 1.85 .08.04.12.12.21.17 .6-.74 1.16-1.43 1.76-2.12h-.02c.01-.03.02-.06.05-.09 1.63-1.94 3.23-3.93 4.87-5.87 .21-.26.38-.48.6-.74 -.05-.05-.09-.09-.13-.13 -2.42-2.07-5.09-3.67-8.07-4.83 -2.77-1.08-5.65-1.51-8.59-1.64 -.13 0-.26-.05-.39-.05h-2.2c-.12.01-.24.02-.36.03l-.25.01c-.13 0-.25.01-.36.03 -3.24.21-6.34.99-9.23 2.41 -2.16 1.03-4.1 2.37-5.83 4 -1.86 1.76-3.41 3.83-4.58 6.11 -.13.24-.25.44-.34.68l-.06 0c-.95 1.93-1.6 3.96-1.95 6.07 -.18.99-.49 3.59-.31 6.11 .02.38.3 2.41.38 3.05 .04.17.08.21.25.21l12.98-.05c-.18-.69-.61-2.2-.61-2.25 -.35-1.86-.39-3.75 0-5.61 .64-3.02 2.14-5.51 4.59-7.55 1.45-1.22 3.42-1.9 5.28-2.12 1.16-.13 2.32-.09 3.49.04 1.29.12 2.54.43 3.75.94 .69.3 1.38.68 2.02 1.03 .04 0 .08.04.08.08h.19Zm15.59-12.5l-.05 27.88h12.33c.04-.13.04-.22.04-.31V12.78H65.52Zm-3.8 27.83c-.05-.69-.05-8.97-.05-9.01H40.94v9h20.78Z"></path></svg>