<!-- Logo brand HIPMILLER -->

<svg viewBox="0 0 128 64" xmlns="http://www.w3.org/2000/svg" fill="var(--c-text)" aria-label="bikeit logo" class="logo-Q0mO_3"><path d="M27.33 8l-.01 27.2 -3.27 0v0 1.29 0h3.26v19.5 0h-8.08v0V35.12v0h-9.7v0 20.85 0H1.32v0V30.96v0H-.04v0V7.98v0h9.51v0 19.06 0h9.69v0V7.96v0h8.11v0Zm22.98 14.81v7.69 0h1.95v0 -7.7 0H56v0c-.02 6.04-.02 12.07-.02 18.14h-3.71v0 -7.21 0H50.3v0 7.19 0h-3.73v0V22.78v0h3.7v0Zm20.35.13c.53.04 1.36 1.25 1.4 1.95 .16 2.98.21 5.99-.04 8.96 -.07.8-1.21 1.84-2.08 2.15 -1.05.37-2.32.08-3.57.08v4.84 0h-3.62v0V22.81v0c2.64 0 5.27-.12 7.88.09Zm33.78-.15v14.76 0h3.69v0c-.22 1.17-.42 2.26-.64 3.38h-6.79v0V22.77v0h3.72v0Zm-8.63 0v14.77 0h3.7v0c-.22 1.17-.42 2.26-.63 3.36 -2.3.01-4.53.01-6.81.01V22.77v0h3.72v0Zm-34.63 0v18.15 0h-3.62v0V22.78v0h3.61v0Zm29.29.01v18.14 0h-3.58v0V22.79v0h3.57v0Zm-13.04-.02c.64 2.44 1.27 4.91 1.99 7.64 .53-2.02 1.02-3.91 1.5-5.77l.48-1.87v0h3.86v0 18.13 0h-3.53v0 -8.56 0c-.85 2.65-1.56 4.86-2.34 7.27 -.2-.61-.38-1.2-.57-1.78l-.56-1.76c-.38-1.18-.76-2.37-1.16-3.65v8.45 0h-3.54v0V22.73v0h3.81v0Zm48.86.2c.53.04 1.31 1.35 1.36 2.11 .17 2.63.13 5.31.02 7.95 -.05.8-.65 1.58-1.28 3.02 .33 1.01.93 2.88 1.56 4.84 -.91 0-1.74 0-2.55.01l-1.23 0v0c-.58-1.9-1.16-3.79-1.76-5.72 -.14-.02-.29-.02-.49-.03v5.73 0h-3.65v0V22.85v0c2.66 0 5.32-.12 7.96.09Zm-9.92-.21c.2 1.08.4 2.17.62 3.34h-3.96v0 4.3 0h2.94v0 3.15 0h-2.96v0 3.97 0h3.8v0c-.22 1.17-.42 2.24-.63 3.35h-6.93v0c.02-6.02.02-12.06.02-18.14h7.06v0ZM31.59 35.19v1.27 0l-4.29-.01v-1.28l4.28 0v0Zm36.85-9.23h-2.07v0 7.07 0h2.06v0 -7.08 0Zm55.56-.02h-2.01v0 6.18 0h2v0 -6.19 0Z"></path></svg>