<!-- Logo Brand Sciare -->

<svg viewBox="0 0 128 64" xmlns="http://www.w3.org/2000/svg" fill="var(--c-text)" aria-label="bikeit logo" class="logo-Q0mO_3"><path fill="#005EA8" d="M28.6 13.35c3.29 1.34 4.17 1.45 5.22.63 .58-.47 2.19-.82 2.19-.48 0 .23-3.37 10.75-3.48 10.86 -.07.06-.37.02-.67-.1 -.45-.19-.55-.57-.62-2.33 -.18-4.88-3.36-8.28-7.71-8.26 -3.07.01-5.69 2.87-5.69 6.19 0 2.25.65 3.3 4.5 7.27 1.97 2.03 4.01 4.3 4.52 5.05 .5.74 1.02 1.34 1.15 1.34 .12 0 .4-.42.61-.93 .2-.51 1.4-1.96 2.65-3.23 4.05-4.11 8.39-5.42 13.9-4.21 3.67.8 3.73.8 4.29.15 .28-.34.72-.61.97-.61 .42 0 .43.16.1 1.63 -.03.11-.06.24-.09.38l-.11.46c-.23 1-.54 2.4-.79 3.54 -.76 3.39-1.27 3.65-1.51.75 -.22-2.62-1.13-4.24-2.84-5.07 -3.19-1.55-6.79-.01-9.51 4.06 -3.22 4.81-4.66 10.74-3.71 15.26 .6 2.89 3.42 4.73 6.71 4.39 2-.21 3.73-1.09 5.7-2.92 1.38-1.29 1.7-1.47 2.1-1.17 .41.31.34.48-.66 1.66 -2.3 2.68-5.83 4.24-9.46 4.19 -1.12-.02-2.43-.13-2.92-.25 -1.68-.4-3.66-1.56-5.03-2.93 -1.38-1.38-1.38-1.38-2.65-.21 -.7.64-2.12 1.56-3.15 2.05 -1.64.76-2.27.89-4.89 1 -3.5.14-5.88-.38-9.37-2.06 -2.62-1.26-3.41-1.29-4.35-.16 -.46.53-.99.85-1.45.85 -.4 0-.73-.08-.73-.18 0-.02.01-.07.02-.15l.08-.35c.23-.92.79-3 1.44-5.36 .85-3.12 1.55-5.85 1.55-6.08 0-.44.42-.5 1.13-.18 .32.14.43.76.47 2.52 .07 3.89 1.91 6.92 5.15 8.51 1.32.64 1.97.78 3.75.78 1.9 0 2.31-.11 3.51-.85 1.66-1.04 3.1-3.07 3.5-4.94 .6-2.83-.78-5.42-5.83-10.87 -5.35-5.77-6.76-9.06-5.67-13.15 .87-3.28 2.81-5.69 5.72-7.12 1.59-.79 2.96-.98 5.21-.98s3.58.16 6.49 1.35Zm47.89 11.42c.23 0 .32.91.33 4.97l0 1.03c-.01 1.65-.02 3.73-.04 6.35 -.09 10.66-.1 12.13.31 12.67l.03.04v0l.03.03c.04.04.1.09.16.14 1.15.93 2.58-.1 3.27-2.37 1-3.33 5.02-18.22 5.18-19.24 .22-1.39-.18-1.91-1.64-2.15 -.66-.11-1.1-.34-1.1-.57 0-.3.94-.38 4.95-.39l.93-.01v0c8.62 0 11.42.57 12.87 2.61 .75 1.06 1 3.41.51 4.9 -.72 2.15-2.97 3.98-5.78 4.69 -.73.18-1.32.42-1.32.53 0 .25.86 2.84 1.78 5.47l.22.62c.85 2.4 1.69 4.68 1.89 5.02 .79 1.34 2.48 1.41 3.32.14 .28-.45 1.63-5.11 2.96-9.98l.22-.84c.07-.28.15-.56.22-.84l.22-.84c1.17-4.42 2.17-8.45 2.17-9.02 0-.96-.12-1.18-.73-1.41 -.4-.16-1.04-.28-1.42-.28 -.43 0-.7-.17-.7-.43 0-.35 1.18-.42 8.79-.43l1.58-.01v0c11.81 0 10.6-.6 9.41 4.61 -.66 2.85-1.2 3.25-1.46 1.05 -.24-2.01-.94-3.02-2.65-3.87 -1.17-.58-1.95-.73-3.79-.77 -.18-.01-.35-.01-.5-.01l-.31-.01c-2.17.01-2.34.5-3.43 4.68 -.5 1.92-1.1 4.06-1.32 4.75 -.23.68-.38 1.27-.34 1.3 .03.02 1.2-.05 2.58-.16 2.88-.24 3.55-.6 4.85-2.62 .46-.73 1.06-1.33 1.33-1.33 .43-.02.44.09.12 1.04 -.2.58-.86 2.94-1.47 5.25 -1.19 4.48-1.84 5.44-1.84 2.69 -.01-2.73-1.4-3.91-4.61-3.91 -.98 0-1.32.11-1.42.49 -.08.27-.75 2.76-1.5 5.53 -1.21 4.46-1.33 4.99-.97 5.47l.05.06v0l.05.06v0c.41.46.87.56 2.52.55 4.81-.02 8.6-1.85 10.98-5.32 .47-.7.97-1.16 1.1-1.02 .25.25-1.78 7.23-2.1 7.2 -.02-.01-.09-.01-.23-.01l-.16-.01c-.09-.01-.2-.01-.32-.01l-.26-.01c-.14-.01-.29-.01-.46-.01l-.35-.01c-.07-.01-.13-.01-.19-.01l-.4-.01c-.07-.01-.14-.01-.21-.01l-.45-.01c-.08-.01-.16-.01-.24-.01l-.49-.01c-.09-.01-.17-.01-.26-.01l-.8-.01c-.1-.01-.19-.01-.28-.01l-.88-.01c-.1-.01-.21-.01-.31-.01l-.95-.01c-.11-.01-.22-.01-.33-.01l-1.7-.01c-.12-.01-.24-.01-.36-.01l-5.33-.01c-12.18-.01-12.24-.21-14.29-6.4 -2.03-6.14-2.15-6.4-2.81-6.32 -.65.07-.79.43-2.11 5.25 -1.64 5.96-1.62 6.41.36 6.74 .12.02.23.04.33.06l.19.03c2.09.43-.67.6-9.49.61l-.39 0c-5.77 0-10.49-.11-10.49-.23 0-.13.53-.35 1.18-.5 1.81-.42 2.26-1.25 2.44-4.51 .13-2.62.14-2.72-3.73-2.72l-1.08 0c-3.81 0-3.89.1-5.56 2.36 -2.69 3.62-2.87 4.59-.92 4.91 .63.1 1.03.3.95.49 -.09.2-3.2.32-6.51.33l-.71 0c-3.56 0-7.09-.11-7.09-.34 0-.18.5-.52 1.12-.76 .78-.31 1.25-.74 1.55-1.4 .3-.68 1.63-5.37 2.92-10.14l.22-.85c1.27-4.77 2.45-9.39 2.47-9.91 .03-1.18-.31-1.5-1.76-1.7 -.73-.1-1.17-.31-1.17-.55 0-.31.98-.39 5.14-.39l1.24-.01c4.22 0 5.13.08 5.13.39 0 .21-.37.47-.82.56 -1.66.33-1.94.99-4.73 11.16 -2.64 9.57-3.22 12.27-2.66 12.27 .01 0 .02-.01.04-.01l.02-.01c.09-.03.22-.12.45-.33l.07-.08c.94-.95 3.4-3.97 10.8-13.15 5.05-6.29 9.37-11.42 9.59-11.42Zm-4.94 7.38c-.15 0-.44.27-.65.61 -.22.33-1.84 2.44-3.62 4.68 -1.78 2.23-3.23 4.19-3.23 4.35 0 .35 6.98.39 7.2.04 .19-.32.37-4.78.38-7.54l-.01-.49c-.01-1-.04-1.68-.12-1.68Zm22.19-5.68c-.73 0-1.46.17-1.69.4 -.23.22-.94 2.42-1.59 4.89 -.65 2.47-1.26 4.75-1.34 5.07 -.16.55-.08.57 1.77.4 1.06-.1 2.31-.38 2.78-.63 2.05-1.08 3.24-3.37 3.25-6.28 0-1.84-.05-2-.96-2.91 -.82-.82-1.17-.97-2.25-.97Z"></path></svg>