<!-- Logo brand TNS -->

<svg viewBox="0 0 128 64" xmlns="http://www.w3.org/2000/svg" fill="var(--c-text)" aria-label="bikeit logo" class="logo-Q0mO_3"><g fill="#5A5B5E"><path d="M44.56 31.79c0 4.17 0 8.14 0 12.32 0 1.25-.62 1.67-1.65 1.88 -.42 0-.83 0-1.03 0 -7.61 0-15.42 0-23.02 0 -.42 0-.62 0-1.03 0 -1.65-.21-1.85-.42-1.85-2.09 0-7.95 0-16.09 0-24.03 0-1.26.61-1.89 1.64-1.89 .41 0 1.02 0 1.43 0 7.39 0 14.79 0 22.39 0 .2 0 .61 0 .82 0 1.84.2 2.26.41 2.26 2.5 0 3.55 0 7.52 0 11.28 0 0 0 0 0 0Z"></path><path fill="#FFF30B" d="M33.87 32.2s0 8.36 0 8.56c.27-.14 1.98-2.23 5.13-6.27 0-3.91 0-6.83 0-8.78 0-1.89-.83-2.72-2.68-2.72 -2.2 0-5.42 0-9.66 0 -3.57 2.92-5.42 4.52-5.55 4.8 .27 0 3.17 0 8.69 0 -4.02 4.31-6.92 7.38-8.7 9.19 -.42.41-.62.83 0 1.25 .82.83 1.84 1.88 2.67 2.71 .2.2.82.2 1.02 0 1.43-1.26 7.39-7.11 9.04-8.78Z"></path><path fill="#365983" d="M70.65 24.05c0-1.05.43-1.47 1.45-1.47 2.18 0 3.48 0 3.89 0 1.02 0 1.64.41 2.05 1.25 2.05 2.92 4.1 5.85 6.16 8.56 .2.41 1.28 1.4 1.48.99 .2-.42.15-1.21.15-1.62 0-2.51 0-5.23 0-7.74 0-1.05.41-1.47 1.43-1.47 1.23 0 2.46 0 3.69 0 .82 0 1.23.41 1.23 1.25 0 6.26 0 12.53 0 18.8 0 .83-.42 1.25-1.24 1.25 -1.65 0-3.29 0-4.73 0 -.62 0-1.24-.42-1.65-.84 -2.27-2.93-4.32-6.06-6.58-9.2 -.21-.21-.62-.63-.83-.42 -.21.2-.42.62-.42 1.04 0 2.71 0 5.43 0 7.94 0 1.04-.42 1.46-1.44 1.46 -1.24 0-2.27 0-3.5 0 -1.03 0-1.24-.42-1.24-1.26 0-3.35 0-6.48 0-9.62 0-2.93 0-6.06 0-8.99Zm23.62 12.74c1.02.41 1.84.62 2.67 1.04 1.84.62 3.49 1.25 5.34 1.67 1.02.2 1.93-.02 2.96-.23 1.02-.21 1.14-.82.93-1.24 -.21-.42-.62-1.05-1.03-1.26 -1.65-.63-3.5-1.05-5.35-1.47 -1.24-.63-2.27-1.26-3.29-1.68 -2.27-1.47-2.68-3.56-2.47-6.06 .2-2.3 1.64-3.98 3.69-4.81 1.23-.42 2.46-.84 3.49-.84 2.67 0 5.34.41 8.01.83 .45.07.91.14 1.02.83 .1.68.2 2.92.41 4.38 0 .62-.21.83-1.03.62 -2.06-1.05-4.32-1.89-6.79-1.89 -.83 0-1.44 0-2.27.2 -.42 0-.83.62-.83.83 0 .41.2.83.61 1.04 1.23.41 2.46.83 3.69 1.25 1.43.41 2.87.83 4.31 1.25 2.87 1.25 4.1 4.59 3.28 7.52 -1.03 2.92-3.09 4.38-5.96 4.8 -3.5.62-6.79.2-10.28-.63 -.42 0-.83-.42-.83-.63 -.21-1.68-.21-3.56-.42-5.65ZM59.13 22.37c2.87 0 5.54 0 8.42 0 1.02 0 1.43.41 1.43 1.46 0 3.55.61 3.13-3.09 3.13 -.42 0-.62 0-1.03 0 -2.27 0-2.27 0-2.27 2.29 0 4.17 0 8.35 0 12.74 0 1.25-.21 1.67-1.44 1.67 -1.44 0-2.68 0-4.11 0 -1.03 0-1.24-.42-1.24-1.26 0-4.6 0-9.2 0-14 0-.84-.42-1.47-1.44-1.47 -1.24 0-2.68 0-3.91 0 -.83 0-1.24-.21-1.24-1.26 0-3.77-.62-3.35 3.28-3.35 2.05 0 4.31 0 6.57 0 0 0 0 0 0 0Z"></path></g></svg>